<?xml version="1.0" encoding="utf-8"?>
<!-- Generator: Adobe Illustrator 21.0.0, SVG Export Plug-In . SVG Version: 6.00 Build 0)  -->
<svg version="1.1" id="Capa_1" xmlns="http://www.w3.org/2000/svg" xmlns:xlink="http://www.w3.org/1999/xlink" x="0px" y="0px"
	 viewBox="0 0 480 480" style="enable-background:new 0 0 480 480;" xml:space="preserve">
<style type="text/css">
	.st0{fill:#FFFFFF;}
</style>
<g>
	<g>
		<path class="st0" d="M440,0H40C17.9,0,0,17.9,0,40v304c0,22.1,17.9,40,40,40h157.8l-12,48H128c-4.4,0-8,3.6-8,8
			c0,22.1,17.9,40,40,40h160c22.1,0,40-17.9,40-40c0-4.4-3.6-8-8-8h-57.8l-12-48H440c22.1,0,40-17.9,40-40V40
			C480,17.9,462.1,0,440,0z M288,448h54.6c-3.3,9.3-12.2,16-22.6,16H160c-10.4,0-19.3-6.7-22.6-16H192H288z M202.2,432l12-48h51.5
			l12,48H202.2z M464,344c0,13.2-10.8,24-24,24H272h-64H40c-13.2,0-24-10.8-24-24v-8h448V344z M464,320H16V40c0-13.2,10.8-24,24-24
			h400c13.2,0,24,10.8,24,24V320z"/>
	</g>
</g>
<g>
	<g>
		<path class="st0" d="M181.7,237.7l-11.3-11.3l-32,32c-3.1,3.1-3.1,8.2,0,11.3l32,32l11.3-11.3L155.3,264L181.7,237.7z"/>
	</g>
</g>
<g>
	<g>
		<rect x="200" y="256" transform="matrix(0.6002 -0.7999 0.7999 0.6002 -115.2018 297.5486)" class="st0" width="80" height="16"/>
	</g>
</g>
<g>
	<g>
		<path class="st0" d="M341.7,258.3l-32-32l-11.3,11.3l26.3,26.3l-26.3,26.3l11.3,11.3l32-32C344.8,266.5,344.8,261.5,341.7,258.3z"
			/>
	</g>
</g>
<g>
	<g>
		<path class="st0" d="M320,96h-12.2c-0.8-2.4-1.8-4.7-2.9-7l8.6-8.6c1.5-1.5,2.3-3.5,2.3-5.7s-0.8-4.2-2.3-5.7l-22.6-22.6
			c-3.1-3.1-8.2-3.1-11.3,0l-8.6,8.6c-2.3-1.1-4.6-2-7-2.9V40c0-4.4-3.6-8-8-8h-32c-4.4,0-8,3.6-8,8v12.2c-2.4,0.8-4.7,1.8-7,2.9
			l-8.6-8.6c-3.1-3.1-8.2-3.1-11.3,0l-22.6,22.6c-1.5,1.5-2.3,3.5-2.3,5.7s0.8,4.2,2.3,5.7l8.6,8.6c-1.1,2.3-2,4.6-2.9,7H160
			c-4.4,0-8,3.6-8,8v32c0,4.4,3.6,8,8,8h12.2c0.8,2.4,1.8,4.7,2.9,7l-8.6,8.6c-1.5,1.5-2.3,3.5-2.3,5.7s0.8,4.2,2.3,5.7l22.6,22.6
			c3.1,3.1,8.2,3.1,11.3,0l8.6-8.6c2.3,1.1,4.6,2,7,2.9V200c0,4.4,3.6,8,8,8h32c4.4,0,8-3.6,8-8v-12.2c2.4-0.8,4.7-1.8,7-2.9
			l8.6,8.6c3.1,3.1,8.2,3.1,11.3,0l22.6-22.6c1.5-1.5,2.3-3.5,2.3-5.7s-0.8-4.2-2.3-5.7l-8.6-8.6c1.1-2.3,2-4.6,2.9-7H320
			c4.4,0,8-3.6,8-8v-32C328,99.6,324.4,96,320,96z M312,128h-10.1c-3.6,0-6.8,2.5-7.7,6c-1.3,5.1-3.3,9.9-6,14.4
			c-1.8,3.1-1.3,7.1,1.2,9.7l7.1,7.1l-11.3,11.3l-7.1-7.1c-2.6-2.6-6.6-3.1-9.7-1.2c-4.5,2.6-9.3,4.6-14.4,6c-3.5,0.9-6,4.1-6,7.7
			V192h-16v-10.1c0-3.6-2.5-6.8-6-7.7c-5.1-1.3-9.9-3.3-14.4-6c-3.1-1.9-7.2-1.4-9.7,1.2l-7.1,7.1l-11.3-11.3l7.1-7.1
			c2.6-2.6,3.1-6.6,1.2-9.7c-2.6-4.5-4.7-9.3-6-14.4c-0.9-3.5-4.1-6-7.7-6H168v-16h10.1c3.6,0,6.8-2.5,7.7-6c1.3-5.1,3.3-9.9,6-14.4
			c1.8-3.1,1.3-7.1-1.2-9.7l-7.1-7.1l11.3-11.3l7.1,7.1c2.6,2.6,6.6,3.1,9.7,1.2c4.5-2.6,9.3-4.6,14.4-6c3.5-0.9,6-4.1,6-7.7V48h16
			v10.1c0,3.6,2.5,6.8,6,7.7c5.1,1.3,9.9,3.3,14.4,6c3.1,1.8,7.2,1.4,9.7-1.2l7.1-7.1l11.3,11.3l-7.1,7.1c-2.6,2.6-3.1,6.6-1.2,9.7
			c2.6,4.5,4.7,9.3,6,14.4c0.9,3.5,4.1,6,7.7,6H312V128z"/>
	</g>
</g>
<g>
	<g>
		<path class="st0" d="M240,80c-22.1,0-40,17.9-40,40s17.9,40,40,40s40-17.9,40-40S262.1,80,240,80z M240,144c-13.2,0-24-10.8-24-24
			s10.8-24,24-24s24,10.8,24,24S253.2,144,240,144z"/>
	</g>
</g>
<g>
	<g>
		<rect x="128" y="64" class="st0" width="16" height="16"/>
	</g>
</g>
<g>
	<g>
		<rect x="96" y="64" class="st0" width="16" height="16"/>
	</g>
</g>
<g>
	<g>
		<rect x="64" y="64" class="st0" width="16" height="16"/>
	</g>
</g>
<g>
	<g>
		<rect x="32" y="64" class="st0" width="16" height="16"/>
	</g>
</g>
<g>
	<g>
		<rect x="32" y="96" class="st0" width="16" height="16"/>
	</g>
</g>
<g>
	<g>
		<rect x="32" y="128" class="st0" width="16" height="16"/>
	</g>
</g>
<g>
	<g>
		<rect x="32" y="160" class="st0" width="16" height="16"/>
	</g>
</g>
<g>
	<g>
		<rect x="32" y="192" class="st0" width="16" height="16"/>
	</g>
</g>
<g>
	<g>
		<rect x="32" y="224" class="st0" width="16" height="16"/>
	</g>
</g>
<g>
	<g>
		<rect x="32" y="256" class="st0" width="16" height="16"/>
	</g>
</g>
<g>
	<g>
		<rect x="64" y="256" class="st0" width="16" height="16"/>
	</g>
</g>
<g>
	<g>
		<rect x="96" y="256" class="st0" width="16" height="16"/>
	</g>
</g>
<g>
	<g>
		<rect x="368" y="256" class="st0" width="16" height="16"/>
	</g>
</g>
<g>
	<g>
		<rect x="400" y="256" class="st0" width="16" height="16"/>
	</g>
</g>
<g>
	<g>
		<rect x="432" y="256" class="st0" width="16" height="16"/>
	</g>
</g>
<g>
	<g>
		<rect x="432" y="224" class="st0" width="16" height="16"/>
	</g>
</g>
<g>
	<g>
		<rect x="432" y="192" class="st0" width="16" height="16"/>
	</g>
</g>
<g>
	<g>
		<rect x="432" y="160" class="st0" width="16" height="16"/>
	</g>
</g>
<g>
	<g>
		<rect x="432" y="128" class="st0" width="16" height="16"/>
	</g>
</g>
<g>
	<g>
		<rect x="432" y="96" class="st0" width="16" height="16"/>
	</g>
</g>
<g>
	<g>
		<rect x="432" y="64" class="st0" width="16" height="16"/>
	</g>
</g>
<g>
	<g>
		<rect x="400" y="64" class="st0" width="16" height="16"/>
	</g>
</g>
<g>
	<g>
		<rect x="368" y="64" class="st0" width="16" height="16"/>
	</g>
</g>
<g>
	<g>
		<rect x="336" y="64" class="st0" width="16" height="16"/>
	</g>
</g>
</svg>
