<?xml version="1.0" encoding="utf-8"?>
<!-- Generator: Adobe Illustrator 21.0.0, SVG Export Plug-In . SVG Version: 6.00 Build 0)  -->
<svg version="1.1" id="Capa_1" xmlns="http://www.w3.org/2000/svg" xmlns:xlink="http://www.w3.org/1999/xlink" x="0px" y="0px"
	 viewBox="0 0 480 480" style="enable-background:new 0 0 480 480;" xml:space="preserve">
<style type="text/css">
	.st0{fill:#FFFFFF;}
</style>
<g>
	<g>
		<path class="st0" d="M440,0H56C33.9,0,16,17.9,16,40v300.2C5.9,354.6,0,372.1,0,391c0,49.1,39.9,89,89,89c46,0,84-35.1,88.5-80
			H256v32c0,17.6,14.4,32,32,32s32-14.4,32-32v-32h120c22.1,0,40-17.9,40-40V40C480,17.9,462.1,0,440,0z M162,391.9
			C162,391.9,162,391.9,162,391.9c-0.5,39.8-33,72.1-73,72.1c-40.3,0-73-32.7-73-73c0-16.4,5.5-31.5,14.7-43.7
			c1.5-2.1,3.2-4,4.9-5.9c0.2-0.2,0.4-0.5,0.7-0.7c1.7-1.8,3.6-3.6,5.5-5.2c0.2-0.2,0.4-0.4,0.6-0.5c2-1.7,4-3.2,6.2-4.6
			c1-0.6,2-1.2,2.9-1.8c1.2-0.7,2.4-1.4,3.6-2.1c1.2-0.6,2.4-1.2,3.7-1.8c0.5-0.2,1.1-0.5,1.6-0.7c1.8-0.8,3.7-1.5,5.6-2.2
			c0.7-0.2,1.4-0.4,2.2-0.6c1.7-0.5,3.4-1,5.2-1.4c0,0,0,0,0,0c1.2-0.3,2.5-0.5,3.8-0.7c1.1-0.2,2.3-0.4,3.4-0.5
			c0.2,0,0.4-0.1,0.5-0.1c2.6-0.3,5.3-0.5,8-0.5c3.3,0,6.5,0.3,9.7,0.7c0.9,0.1,1.7,0.2,2.6,0.4c2.8,0.5,5.5,1.1,8.2,1.9
			c0.4,0.1,0.8,0.2,1.2,0.3c2.8,0.9,5.5,2,8.2,3.2c1,0.5,2.1,1,3.1,1.5c1.9,1,3.7,2,5.5,3.1c1.3,0.8,2.5,1.6,3.8,2.5
			c1.8,1.3,3.5,2.6,5.1,4c1,0.9,2,1.8,3,2.7c1.5,1.5,3,3,4.4,4.6c0.8,0.9,1.6,1.9,2.4,2.9c1.6,2,3.1,4.1,4.4,6.3
			c0.5,0.8,1,1.6,1.4,2.4c1.6,2.7,3.1,5.5,4.3,8.5c2.7,6.5,4.5,13.4,5.2,20.6c0.2,2.4,0.4,4.9,0.4,7.4
			C162,391.1,162,391.7,162,391.9z M256,384h-78.3c0-0.4-0.1-0.7-0.1-1.1c-0.1-1.3-0.3-2.6-0.5-3.9c-0.2-1.6-0.4-3.2-0.7-4.7
			c-0.2-1.3-0.6-2.6-0.9-3.8c-0.2-0.8-0.3-1.6-0.6-2.4h81V384z M256,352h-87c0,0,0-0.1-0.1-0.1c0,0,0-0.1-0.1-0.1
			c-0.4-0.8-0.8-1.5-1.2-2.2c-0.3-0.5-0.5-1-0.8-1.5c-0.6-1-1.1-2-1.7-3c-0.2-0.3-0.4-0.6-0.5-0.8c-1.3-2.1-2.7-4.2-4.2-6.2
			c0,0,0,0,0,0c-9.5-12.8-22.2-22.7-36.7-28.9c-0.1,0-0.2-0.1-0.3-0.1c-0.3-0.1-0.7-0.3-1-0.4c-0.2-0.1-0.4-0.2-0.6-0.2
			c-1.9-0.8-3.9-1.4-5.8-2.1c-0.3-0.1-0.5-0.2-0.8-0.3c-2.6-0.8-5.3-1.5-8-2.1c-0.2,0-0.4-0.1-0.6-0.1c-0.5-0.1-1.1-0.2-1.6-0.3
			c-1.9-0.3-3.8-0.6-5.7-0.8c-0.5-0.1-0.9-0.1-1.4-0.2c-0.4,0-0.7,0-1.1-0.1c-2.6-0.2-5.2-0.4-7.8-0.4c-2.9,0-5.8,0.2-8.6,0.4
			c-0.7,0.1-1.5,0.2-2.2,0.3c-0.3,0-0.5,0.1-0.8,0.1c-0.6,0.1-1.2,0.1-1.8,0.2c-1.3,0.2-2.5,0.4-3.8,0.6c-0.7,0.1-1.4,0.3-2.1,0.5
			c-1.9,0.4-3.8,0.9-5.7,1.4V224h72c3.2,0,6-1.9,7.3-4.8l24.7-55.6l8.4,18.9c-0.3,3.2-0.4,6.3-0.4,9.4c0,3.4,0.2,6.7,0.5,10
			c0.1,1.1,0.2,2.1,0.3,3.1c0.3,2.4,0.6,4.7,1.1,7.1c0.2,1,0.3,2,0.5,3.1c0.6,2.8,1.3,5.6,2.2,8.3c0.5,1.6,1,3.1,1.5,4.6
			c0.5,1.4,1,2.7,1.5,4.1c0.6,1.7,1.3,3.3,2,5c0.4,1,0.9,1.9,1.4,2.8c1.5,3.2,3.2,6.2,5,9.2c0.4,0.7,0.8,1.4,1.2,2.1l0,0
			c12.8,20.4,32,36.3,54.7,45V312c0,7.1,3.1,13.4,8,17.8V352z M398.7,208c0.8-5.2,1.3-10.6,1.3-16c0-61.8-50.2-112-112-112
			c-49.1,0-90.9,31.8-105.9,75.9l-6.8-15.2c-1.3-2.9-4.2-4.8-7.3-4.8s-6,1.9-7.3,4.8L130.8,208H64V48h368v160H398.7z M432,224v128
			H320v-22.2c4.9-4.4,8-10.7,8-17.8v-15.5c18.1-6.9,33.9-18.3,46.1-33l0,0c2.7-3.3,5.2-6.8,7.6-10.4c5.8-8.9,10.4-18.7,13.6-29.1
			L432,224L432,224z M304,360v32v40c0,8.8-7.2,16-16,16s-16-7.2-16-16v-40v-32v-24h32V360z M312,312c0,3.1-1.8,5.7-4.4,7
			c-0.4,0.2-0.7,0.3-1.1,0.5c-0.8,0.3-1.6,0.5-2.6,0.5h-32c-0.9,0-1.7-0.2-2.6-0.5c-0.4-0.1-0.7-0.3-1.1-0.5c-2.6-1.3-4.4-3.9-4.4-7
			v-10.6c0.1,0,0.2,0,0.4,0.1c3.4,0.7,6.9,1.3,10.4,1.7c0.5,0.1,0.9,0.2,1.4,0.2c3.9,0.4,7.9,0.7,11.9,0.7s8-0.2,11.9-0.7
			c0.5,0,0.9-0.2,1.4-0.2c3.5-0.4,7-1,10.4-1.7c0.1,0,0.2,0,0.4-0.1L312,312L312,312z M317.4,283.4c-1.3,0.4-2.7,0.8-4,1.1
			c-1.4,0.4-2.8,0.8-4.3,1.1c-1.4,0.3-2.8,0.6-4.1,0.8c-1.5,0.3-3.1,0.5-4.6,0.7c-1.3,0.2-2.6,0.3-3.8,0.4c-2.2,0.2-4.5,0.3-6.8,0.3
			c-1.1,0-2.2,0-3.4,0c-2.3,0-4.6-0.1-6.8-0.3c-1.3-0.1-2.6-0.3-3.8-0.4c-1.6-0.2-3.1-0.4-4.6-0.7c-1.4-0.2-2.8-0.5-4.1-0.8
			c-1.4-0.3-2.8-0.7-4.3-1.1c-1.3-0.4-2.7-0.7-4-1.1c-22.2-7.1-40.8-22.2-52.6-41.7c-1.9-3.1-3.6-6.4-5.2-9.7
			c-0.2-0.3-0.3-0.7-0.5-1c-0.7-1.5-1.3-3.1-1.9-4.6c-0.4-1-0.8-2-1.1-3.1c-0.5-1.4-1-2.8-1.4-4.3c-0.7-2.3-1.3-4.6-1.8-7
			c-0.2-0.9-0.3-1.8-0.5-2.7c-0.4-2-0.7-4-0.9-6c-0.1-0.9-0.2-1.8-0.3-2.7c-0.3-2.8-0.5-5.7-0.5-8.6c0-3.3,0.2-6.6,0.5-9.9
			c5-48.3,45.9-86.1,95.5-86.1c52.9,0,96,43.1,96,96c0,7.7-1,15.1-2.7,22.3c-0.8,3.4-1.8,6.7-3,10c-0.1,0.4-0.3,0.7-0.4,1.1
			c-1.1,2.9-2.3,5.7-3.6,8.5c-0.3,0.6-0.6,1.2-0.9,1.8c-1.2,2.4-2.6,4.8-4.1,7.1c-0.5,0.8-0.9,1.5-1.4,2.3c-1.7,2.5-3.5,5-5.4,7.3
			C350.9,266.7,335.3,277.6,317.4,283.4z M464,360c0,13.2-10.8,24-24,24H320v-16h120c4.4,0,8-3.6,8-8V40c0-4.4-3.6-8-8-8H56
			c-4.4,0-8,3.6-8,8v272.1c-0.3,0.2-0.6,0.3-0.9,0.5c-0.2,0.1-0.5,0.3-0.8,0.4c-2.3,1.3-4.5,2.6-6.7,4.1c-0.2,0.1-0.3,0.2-0.5,0.3
			c-2.1,1.5-4.2,3-6.2,4.7c-0.2,0.2-0.4,0.3-0.6,0.5c-0.1,0.1-0.2,0.2-0.3,0.3V40c0-13.2,10.8-24,24-24h384c13.2,0,24,10.8,24,24
			V360z"/>
	</g>
</g>
<g>
	<g>
		<path class="st0" d="M88,392v-48H72v56c0,4.4,3.6,8,8,8h56v-16H88z"/>
	</g>
</g>
<g>
	<g>
		<path class="st0" d="M288,112c-44.1,0-80,35.9-80,80c0,6.1,0.7,12,2,17.7c0,0,0,0,0,0.1c0.1,0.4,0.2,0.7,0.3,1.1
			c0.9,3.5,1.9,7,3.2,10.3c0.2,0.6,0.4,1.2,0.7,1.8c0.1,0.3,0.3,0.6,0.4,1c0.9,2.1,1.9,4.1,3,6.1c0,0,0.1,0.1,0.1,0.1
			c9.9,18.3,26.4,31.9,46.2,38.1c0.3,0.1,0.5,0.2,0.8,0.2c2.1,0.6,4.1,1.2,6.3,1.6c0.5,0.1,1.1,0.2,1.6,0.4c1.9,0.4,3.9,0.7,5.8,0.9
			c0.6,0.1,1.3,0.2,1.9,0.2c2.5,0.2,5.1,0.4,7.7,0.4s5.2-0.2,7.7-0.4c0.6-0.1,1.3-0.2,1.9-0.2c2-0.2,3.9-0.5,5.8-0.9
			c0.5-0.1,1.1-0.2,1.6-0.4c2.1-0.5,4.2-1,6.3-1.6c0.3-0.1,0.5-0.2,0.8-0.2c19.8-6.2,36.3-19.8,46.2-38.1c0,0,0.1-0.1,0.1-0.1
			c1.1-2,2.1-4,3-6.1c0.1-0.3,0.3-0.6,0.4-1c0.2-0.6,0.4-1.2,0.7-1.8c1.3-3.3,2.4-6.8,3.2-10.3c0.1-0.4,0.2-0.7,0.3-1.1
			c0,0,0,0,0-0.1c1.3-5.7,2-11.6,2-17.7C368,147.9,332.1,112,288,112z M347.2,216.2c-1,2.6-2.3,5-3.6,7.3c-0.5,0.9-1,1.8-1.6,2.6
			c-0.8,1.4-1.8,2.6-2.7,3.9c-1.3,1.8-2.8,3.5-4.3,5.2c-0.7,0.8-1.4,1.6-2.2,2.3c-1.2,1.1-2.4,2.2-3.6,3.3c-0.7,0.6-1.4,1.1-2.1,1.6
			c-2,1.6-4.2,3.1-6.4,4.4c-1,0.6-2,1.2-3,1.8c-1.2,0.6-2.4,1.2-3.7,1.8c-1.6,0.7-3.3,1.4-5,2c-1.1,0.4-2.1,0.7-3.2,1
			c-2.2,0.6-4.5,1.2-6.8,1.6c-0.8,0.1-1.6,0.3-2.4,0.4c-2.8,0.4-5.7,0.6-8.6,0.6s-5.8-0.3-8.6-0.6c-0.8-0.1-1.6-0.2-2.4-0.4
			c-2.3-0.4-4.6-0.9-6.8-1.6c-1.1-0.3-2.1-0.7-3.2-1c-1.7-0.6-3.4-1.2-5-2c-1.2-0.6-2.5-1.1-3.7-1.8c-1-0.5-2-1.2-3-1.8
			c-2.2-1.3-4.4-2.8-6.4-4.4c-0.7-0.5-1.4-1.1-2.1-1.6c-1.2-1-2.4-2.1-3.6-3.3c-0.8-0.7-1.4-1.5-2.2-2.3c-1.5-1.6-3-3.4-4.3-5.2
			c-0.9-1.3-1.9-2.6-2.7-3.9c-0.5-0.9-1.1-1.7-1.6-2.6c-1.3-2.4-2.6-4.8-3.6-7.3c0-0.1,0-0.1-0.1-0.2H256c2.9,0,5.5-1.5,6.9-4l24-42
			l17.7,41.2c1.3,3,4.2,4.9,7.4,4.9h35.3C347.3,216.1,347.2,216.1,347.2,216.2z M351.4,200h-34.2l-21.9-51.2
			c-1.2-2.8-3.9-4.7-6.9-4.8c-3-0.1-5.9,1.4-7.4,4l-29.7,52h-26.8c-0.3-2.6-0.6-5.3-0.6-8c0-35.3,28.7-64,64-64s64,28.7,64,64
			C352,194.7,351.8,197.4,351.4,200z"/>
	</g>
</g>
</svg>
