<?xml version="1.0" encoding="utf-8"?>
<!-- Generator: Adobe Illustrator 21.0.0, SVG Export Plug-In . SVG Version: 6.00 Build 0)  -->
<svg version="1.1" xmlns="http://www.w3.org/2000/svg" xmlns:xlink="http://www.w3.org/1999/xlink" x="0px" y="0px"
	 viewBox="0 0 477 54" style="enable-background:new 0 0 477 54;" xml:space="preserve">
<style type="text/css">
	.st0{fill:#EF3340;}
	.st1{fill:#353535;}
	.st2{fill:#101010;}
	.st3{fill:#FFFFFF;}
</style>
<g id="Color_on_white">
</g>
<g id="Color_on_black">
	<g>
		<g>
			<path class="st0" d="M28.8,43.5h-8v-2.8c-1.1,1.1-2.2,1.9-3.4,2.4c-1.2,0.5-2.7,0.7-4.5,0.7c-3.6,0-6.3-0.9-8.2-2.8
				c-1.8-1.8-2.6-4.2-2.6-7.2c0-2.7,0.9-4.9,2.8-6.7c1.9-1.7,4.6-2.6,8.2-2.6h7.6v-1.6c0-1.8-0.5-3-1.4-3.8
				c-0.9-0.8-2.5-1.2-4.6-1.2c-2.5,0-4.6,0.9-6.2,2.8l-5-5c1.6-1.7,3.2-2.9,4.9-3.6c1.7-0.7,3.9-1,6.6-1c9.1,0,13.7,3.8,13.7,11.3
				V43.5z M20.8,32.2v-1.7h-5.9c-3.1,0-4.6,1.2-4.6,3.6c0,2.4,1.6,3.5,4.7,3.5c2,0,3.6-0.5,4.6-1.5C20.4,35.5,20.8,34.1,20.8,32.2z"
				/>
			<path class="st0" d="M61.5,12.5l-11.4,31h-6.1l-11.4-31h8.2l6.3,19.2l6.2-19.2H61.5z"/>
			<path class="st0" d="M90.8,30.5H71.3c0,2.1,0.6,3.8,1.8,5c1.2,1.3,2.9,1.9,5,1.9c1.6,0,2.9-0.2,3.9-0.7c1-0.5,2.1-1.2,3.1-2.3
				l4.7,4.6c-1.7,1.7-3.4,3-5.2,3.8c-1.8,0.8-4,1.2-6.7,1.2c-2,0-3.8-0.3-5.4-0.8c-1.6-0.5-3.1-1.3-4.5-2.5c-1.4-1.2-2.5-2.8-3.3-5
				c-0.8-2.2-1.2-4.8-1.2-7.8c0-5,1.2-8.9,3.7-11.7c2.5-2.8,5.8-4.2,9.9-4.2c4.3,0,7.6,1.4,10,4.2c2.4,2.8,3.6,6.4,3.6,11V30.5z
				 M83.6,24.5c0-1.4-0.3-2.5-0.7-3.4c-1-2.2-2.7-3.2-5.2-3.2s-4.3,1.1-5.2,3.2c-0.4,0.9-0.7,2-0.7,3.4H83.6z"/>
			<path class="st0" d="M119.8,43.5h-23v-5.9l13.7-18.1H96.8v-7h23v5.8l-14,18.2h14V43.5z"/>
			<path class="st0" d="M152.3,27.8c0,3-0.3,5.4-0.8,7.3c-0.5,1.9-1.4,3.5-2.8,4.9c-2.5,2.6-5.7,3.8-9.7,3.8c-4,0-7.2-1.3-9.7-3.8
				c-1.4-1.4-2.3-3.1-2.8-5c-0.5-1.9-0.8-4.3-0.8-7.2c0-3,0.2-5.4,0.8-7.2c0.5-1.8,1.4-3.5,2.8-4.9c2.5-2.6,5.7-3.8,9.7-3.8
				c4.1,0,7.3,1.3,9.7,3.8c1.4,1.4,2.3,3.1,2.8,4.9C152.1,22.5,152.3,24.9,152.3,27.8z M144.5,27.8c0-3.9-0.6-6.4-1.8-7.6
				c-0.9-0.9-2.1-1.4-3.7-1.4c-1.5,0-2.7,0.5-3.6,1.4c-1.2,1.2-1.8,3.7-1.8,7.6c0,3.9,0.6,6.5,1.8,7.6c0.9,0.9,2.1,1.4,3.6,1.4
				c1.5,0,2.7-0.5,3.7-1.4C143.9,34.3,144.5,31.7,144.5,27.8z"/>
			<path class="st0" d="M182.6,14.8l-5.9,5.9c-1.2-1.2-2.6-1.9-4.1-1.9c-1.3,0-2.5,0.5-3.5,1.5c-1,1-1.3,4.3-1.3,4.3v18.9h-8v-31h7
				v2.7c1.4-1,2.5-1.8,3.9-2.4c1.4-0.6,2.9-1,4.5-1C178.2,11.9,180.7,12.8,182.6,14.8z"/>
		</g>
		<path class="st3" d="M207.8,53.5h-6.6c-3,0-5.3-0.7-6.8-2.2c-1.7-1.7-2.6-3.8-2.6-6.6v-8.6c0-1.7-0.3-2.9-1-3.5
			c-0.8-0.7-1.8-1.1-3.2-1.1h-2.8v-7h2.8c1.3,0,2.4-0.4,3.2-1.1c0.7-0.7,1-1.9,1-3.5v-8.6c0-2.7,0.9-4.9,2.6-6.6
			c1.5-1.5,3.8-2.2,6.8-2.2h6.6v7h-3.4c-1.8,0-3,0.3-3.6,0.8c-0.7,0.7-1,2-1,3.8v7.6c0,1.3-0.3,2.4-0.8,3.3
			c-0.6,0.9-1.1,1.5-1.6,1.8c-0.5,0.3-1.2,0.6-2,0.9c0.8,0.3,1.5,0.6,2,0.9c0.5,0.3,1,0.9,1.6,1.8c0.5,0.9,0.8,2,0.8,3.3v8.1
			c0,1.9,0.3,3.2,1,3.8c0.6,0.6,1.8,0.8,3.6,0.8h3.4V53.5z"/>
		<path class="st3" d="M238,34.4c0,3.3-1.2,5.8-3.7,7.6c-2.5,1.7-5.7,2.6-9.5,2.6c-2.9,0-5.4-0.3-7.4-0.9c-2.1-0.6-4-1.8-5.9-3.6
			l5.1-5.1c1.9,2,4.7,2.9,8.3,2.9c1.5,0,2.8-0.3,3.9-0.8s1.6-1.4,1.6-2.4c0-1.7-1.1-2.7-3.3-2.9l-5-0.5c-6-0.6-9-3.5-9-8.8
			c0-3.1,1.2-5.6,3.5-7.3c2.3-1.8,5.2-2.6,8.5-2.6c5.3,0,9.3,1.2,11.9,3.7l-4.8,4.9c-1.6-1.4-4-2.1-7.3-2.1c-1.5,0-2.6,0.3-3.3,0.9
			c-0.7,0.6-1.1,1.3-1.1,2.1c0,1.6,1.1,2.5,3.2,2.7l4.9,0.5C234.9,25.8,238,28.8,238,34.4z"/>
		<path class="st3" d="M269.7,28.5c0,3-0.3,5.4-0.8,7.3c-0.5,1.9-1.4,3.5-2.8,4.9c-2.5,2.6-5.7,3.8-9.7,3.8c-4,0-7.2-1.3-9.7-3.8
			c-1.4-1.4-2.3-3.1-2.8-5c-0.5-1.9-0.8-4.3-0.8-7.2c0-3,0.2-5.4,0.8-7.2c0.5-1.8,1.4-3.5,2.8-4.9c2.5-2.6,5.7-3.8,9.7-3.8
			c4.1,0,7.3,1.3,9.7,3.8c1.4,1.4,2.3,3.1,2.8,4.9C269.5,23.2,269.7,25.6,269.7,28.5z M261.9,28.5c0-3.9-0.6-6.4-1.8-7.6
			c-0.9-0.9-2.1-1.4-3.7-1.4c-1.5,0-2.7,0.5-3.6,1.4c-1.2,1.2-1.8,3.7-1.8,7.6c0,3.9,0.6,6.5,1.8,7.6c0.9,0.9,2.1,1.4,3.6,1.4
			c1.5,0,2.7-0.5,3.7-1.4C261.3,35,261.9,32.5,261.9,28.5z"/>
		<path class="st3" d="M291.8,19.5h-6v24h-8v-24h-3v-6h3V9.6c0-2.5,0.7-4.6,2.2-6.4c1.4-1.8,3.5-2.7,6.3-2.7h5.6v7h-3.2
			c-1.9,0-2.8,1-2.8,3v3h6V19.5z"/>
		<path class="st3" d="M311.8,44.5h-4.9c-3,0-5.2-0.9-6.8-2.6c-1.5-1.8-2.3-3.9-2.3-6.3V19.5h-3v-6h3v-9h8v9h6v6h-6v15
			c0,2,1,3,2.9,3h3.1V44.5z"/>
		<path class="st3" d="M359.5,13.5l-9.5,31h-6.4L337.2,25l-6.5,19.5h-6.4l-9.5-31h8.2l5,19.2l6.3-19.2h5.7l6.4,19.2l5-19.2H359.5z"
			/>
		<path class="st3" d="M387.8,44.5h-8v-2.8c-1.1,1.1-2.2,1.9-3.4,2.4c-1.2,0.5-2.7,0.7-4.5,0.7c-3.6,0-6.3-0.9-8.2-2.8
			c-1.8-1.8-2.6-4.2-2.6-7.2c0-2.7,0.9-4.9,2.8-6.7c1.9-1.7,4.6-2.6,8.2-2.6h7.6v-1.6c0-1.8-0.5-3-1.4-3.8c-0.9-0.8-2.5-1.2-4.6-1.2
			c-2.5,0-4.6,0.9-6.2,2.8l-5-5c1.6-1.7,3.2-2.9,4.9-3.6c1.7-0.7,3.9-1,6.6-1c9.1,0,13.7,3.8,13.7,11.3V44.5z M379.8,33.2v-1.7h-5.9
			c-3.1,0-4.6,1.2-4.6,3.6c0,2.4,1.6,3.5,4.7,3.5c2,0,3.6-0.5,4.6-1.5C379.4,36.5,379.8,35.1,379.8,33.2z"/>
		<path class="st3" d="M418.9,15.5l-5.9,5.9c-1.2-1.2-2.6-1.9-4.1-1.9c-1.3,0-2.5,0.5-3.5,1.5c-1,1-1.5,4.3-1.5,4.3v19.1h-8v-31h7
			v2.4c1.6-1,2.7-1.8,4.2-2.4c1.4-0.6,2.9-1,4.5-1C414.5,12.6,417,13.6,418.9,15.5z"/>
		<path class="st3" d="M446.8,31.5h-19.6c0,2.1,0.6,3.8,1.8,5c1.2,1.3,2.9,1.9,5,1.9c1.6,0,2.9-0.2,3.9-0.7c1-0.5,2.1-1.2,3.2-2.3
			l4.7,4.6c-1.7,1.7-3.4,3-5.2,3.8c-1.8,0.8-4,1.2-6.7,1.2c-2,0-3.8-0.3-5.4-0.8c-1.6-0.5-3.1-1.3-4.5-2.5c-1.4-1.2-2.5-2.8-3.3-5
			c-0.8-2.2-1.2-4.8-1.2-7.8c0-5,1.2-8.9,3.7-11.7c2.5-2.8,5.8-4.2,9.9-4.2c4.3,0,7.6,1.4,10,4.2c2.4,2.8,3.6,6.4,3.6,11V31.5z
			 M439.6,25.5c0-1.4-0.3-2.5-0.7-3.4c-1-2.2-2.7-3.2-5.2-3.2c-2.5,0-4.3,1.1-5.2,3.2c-0.4,0.9-0.7,2-0.7,3.4H439.6z"/>
		<path class="st3" d="M474.8,31.5h-3c-1.3,0-2.3,0.4-3,1.1c-0.7,0.7-1,1.9-1,3.5v8.6c0,2.7-0.8,4.9-2.5,6.6
			c-1.4,1.5-3.6,2.2-6.6,2.2h-6v-7h3.4c1.8,0,3-0.3,3.6-0.8c0.7-0.7,1-2,1-3.9v-8.2c0-1.3,0.3-2.5,0.8-3.4c0.5-0.9,1.1-1.5,1.6-1.8
			c0.5-0.3,1.2-0.6,2-0.9c-0.8-0.3-1.5-0.6-2-0.9c-0.5-0.3-1-0.9-1.6-1.8c-0.6-0.9-0.8-2-0.8-3.4v-8.2c0-1.9-0.3-3.2-1-3.9
			c-0.6-0.6-1.8-0.9-3.6-0.9h-3.4v-6h5.9c3-0.5,5.2,0.3,6.7,1.8c1.7,1.7,2.4,6.7,2.4,6.7v8.8c0,1.7,0.3,2.9,1,3.6
			c0.8,0.8,1.8,1.1,3.2,1.1h2.8V31.5z"/>
	</g>
</g>
</svg>
