<?xml version="1.0" encoding="utf-8"?>
<!-- Generator: Adobe Illustrator 21.0.0, SVG Export Plug-In . SVG Version: 6.00 Build 0)  -->
<svg version="1.1" id="Capa_1" xmlns="http://www.w3.org/2000/svg" xmlns:xlink="http://www.w3.org/1999/xlink" x="0px" y="0px"
	 viewBox="0 0 480 480" style="enable-background:new 0 0 480 480;" xml:space="preserve">
<style type="text/css">
	.st0{fill:#FFFFFF;}
</style>
<g>
	<g>
		<path class="st0" d="M440,0H40C17.9,0,0,17.9,0,40v304c0,22.1,17.9,40,40,40h157.8l-12,48H128c-4.4,0-8,3.6-8,8
			c0,22.1,17.9,40,40,40h160c22.1,0,40-17.9,40-40c0-4.4-3.6-8-8-8h-57.8l-12-48H440c22.1,0,40-17.9,40-40V40
			C480,17.9,462.1,0,440,0z M288,448h54.6c-3.3,9.3-12.2,16-22.6,16H160c-10.4,0-19.3-6.7-22.6-16H192H288z M202.2,432l12-48h51.5
			l12,48H202.2z M464,344c0,13.2-10.8,24-24,24H272h-64H40c-13.2,0-24-10.8-24-24v-8h448V344z M464,320H16V40c0-13.2,10.8-24,24-24
			h400c13.2,0,24,10.8,24,24V320z"/>
	</g>
</g>
<g>
	<g>
		<path class="st0" d="M274.1,36.5c0,0-0.1,0-0.1-0.1c-0.3-0.1-0.5-0.1-0.8-0.2c-3.9-1-7.9-1.8-11.9-2.4c-1.7-0.3-3.5-0.6-5.2-0.8
			c-1.6-0.2-3.1-0.3-4.7-0.5c-3.8-0.3-7.6-0.6-11.4-0.6c-75,0-136,61-136,136c0,60.1,39.2,111.1,93.3,129c0.1,0,0.1,0.1,0.2,0.1
			c0.1,0,0.3,0.1,0.4,0.1c1.8,0.6,3.6,1.1,5.4,1.6c1.6,0.5,3.3,0.9,5,1.3c7.5,1.8,15.1,3,23,3.5c0.1,0,0.2,0,0.3,0
			c0.2,0,0.3,0,0.5,0c0,0,0,0,0,0c2.7,0.2,5.3,0.4,8,0.4c4.2,0,8.5-0.2,12.8-0.6c3.9-0.4,7.6-1,11.4-1.6c0.4-0.1,0.8-0.1,1.3-0.2
			c0,0,0,0,0.1,0C328.4,289.5,376,234.3,376,168C376,104.8,332.6,51.7,274.1,36.5z M224,72c4.4,0,8,3.6,8,8s-3.6,8-8,8s-8-3.6-8-8
			S219.6,72,224,72z M272,283.5V224c0-4.4,3.6-8,8-8h1.5c3.3,9.3,12.1,16,22.5,16c13.2,0,24-10.8,24-24s-10.8-24-24-24
			c-10.4,0-19.2,6.7-22.5,16H280c-13.2,0-24,10.8-24,24v62.8c-0.5,0.1-1,0.2-1.5,0.2c-1.4,0.2-2.9,0.3-4.3,0.4
			c-3.4,0.3-6.7,0.5-10.2,0.5V144c0-13.2-10.8-24-24-24h-17.5c-3.3-9.3-12.1-16-22.5-16c-13.2,0-24,10.8-24,24s10.8,24,24,24
			c10.4,0,19.2-6.7,22.5-16H216c4.4,0,8,3.6,8,8v142.8c-4.6-0.6-9-1.5-13.4-2.6c-0.9-0.2-1.7-0.4-2.6-0.7V208c0-13.2-10.8-24-24-24
			h-1.5c-3.3-9.3-12.1-16-22.5-16c-13.2,0-24,10.8-24,24s10.8,24,24,24c10.4,0,19.2-6.7,22.5-16h1.5c4.4,0,8,3.6,8,8v69.9
			c-42.3-18.6-72-60.8-72-109.9c0-58,41.3-106.4,96-117.6v7.1c-9.3,3.3-16,12.1-16,22.5c0,13.2,10.8,24,24,24s24-10.8,24-24
			c0-10.4-6.7-19.2-16-22.5v-9.1c2.7-0.2,5.3-0.4,8-0.4c7.8,0,15.9,0.9,24,2.5V128c0,13.2,10.8,24,24,24h9.5
			c3.3,9.3,12.1,16,22.5,16c13.2,0,24-10.8,24-24s-10.8-24-24-24c-10.4,0-19.2,6.7-22.5,16H288c-4.4,0-8-3.6-8-8V55
			c46.5,16.5,80,60.9,80,113C360,223.1,322.7,269.5,272,283.5z M296,208c0-4.4,3.6-8,8-8s8,3.6,8,8s-3.6,8-8,8S296,212.4,296,208z
			 M184,128c0,4.4-3.6,8-8,8s-8-3.6-8-8s3.6-8,8-8S184,123.6,184,128z M168,192c0,4.4-3.6,8-8,8s-8-3.6-8-8s3.6-8,8-8
			S168,187.6,168,192z M312,144c0-4.4,3.6-8,8-8s8,3.6,8,8s-3.6,8-8,8S312,148.4,312,144z"/>
	</g>
</g>
</svg>
