<?xml version="1.0" encoding="utf-8"?>
<!-- Generator: Adobe Illustrator 21.0.0, SVG Export Plug-In . SVG Version: 6.00 Build 0)  -->
<svg version="1.1" id="Слой_1" xmlns="http://www.w3.org/2000/svg" xmlns:xlink="http://www.w3.org/1999/xlink" x="0px" y="0px"
	 viewBox="0 0 128 160" style="enable-background:new 0 0 128 160;" xml:space="preserve">
<style type="text/css">
	.st0{fill:#FFFFFF;}
</style>
<path class="st0" d="M117.9,49.7l-7.4-3.2l6.3-26.5l-14.5,31.2l4.6,1.9l-2.8,7.9c-0.9-1.6-2-2.9-3.4-3.6l-0.6-23.2
	c0-1-0.5-1.9-1-2.7C94.6,24.8,81,19.1,64,19.1c-17.1,0-30.7,5.8-35.2,12.6c-0.5,0.8-1,1.6-1,2.6l-0.6,23.2c-1.4,0.7-2.6,2-3.4,3.6
	L21,53.2l4.6-1.9L11.1,20.1l6.3,26.5L10,49.8l12.3,16.9c0,0.2,0,0.3,0,0.5c0,4.1,1.8,7.7,4.4,9.3L26.4,93l0,0v0.1
	c-0.1,2.4,1.6,5.1,3.7,6.1l15.5,7.7c2.1,1,5.8,2,8.1,2h20.5c2.4,0,6-0.9,8.1-2l15.5-7.7c2.1-1,3.8-3.8,3.7-6.2l-0.4-16.7
	c2.6-1.6,4.4-5.1,4.4-9.3c0-0.2,0-0.3,0-0.5L117.9,49.7z M88.8,56.7L89,66.9l-12.7,2.8L70.2,71l-1.9-3.7L88.8,56.7z M39.2,56.7
	l20.4,10.6L57.8,71L39,66.9L39.2,56.7z M95.2,93.9l-15.5,7.7c-1.3,0.7-4.1,1.3-5.4,1.3H53.8c-1.4,0-4.1-0.7-5.5-1.4l-15.5-7.7
	c-0.1-0.1-0.3-0.5-0.4-0.7l0.4-17.3l6.9,5.8L64,75l24.3,6.7l6.9-5.8l0.4,17.2C95.6,93.3,95.3,93.7,95.2,93.9z"/>
</svg>
