<?xml version="1.0" encoding="utf-8"?>
<!-- Generator: Adobe Illustrator 21.0.0, SVG Export Plug-In . SVG Version: 6.00 Build 0)  -->
<svg version="1.1" id="Слой_1" xmlns="http://www.w3.org/2000/svg" xmlns:xlink="http://www.w3.org/1999/xlink" x="0px" y="0px"
	 viewBox="0 0 128 160" style="enable-background:new 0 0 128 160;" xml:space="preserve">
<style type="text/css">
	.st0{fill:#FFFFFF;}
</style>
<path class="st0" d="M100.8,59L100,12.3l-7.8,13.3c-6.6-3.9-16.6-6.5-28.3-6.5c-11.6,0-21.7,2.7-28.3,6.5L28,12.3l-0.8,44.9L26.4,93
	l0,0v0.1c-0.1,2.4,1.6,5.1,3.7,6.1l15.5,7.7c2.1,1,5.8,2,8.1,2h20.5c2.4,0,6-0.9,8.1-2l15.5-7.7c2.1-1,3.8-3.8,3.7-6.2L100.8,59z
	 M89,66.9L70.2,71l-1.9-3.7l20.4-10.6L89,66.9z M59.6,67.3L57.8,71L39,66.9l0.3-10.3L59.6,67.3z M95.2,93.9l-15.5,7.7
	c-1.3,0.7-4.1,1.3-5.5,1.3H53.8c-1.4,0-4.1-0.7-5.5-1.4l-15.5-7.7c-0.1-0.1-0.3-0.5-0.4-0.7l0.5-19.6l25.1,4l6,6l6.1-6.1l0,0l25-3.9
	L95.6,93C95.6,93.3,95.3,93.7,95.2,93.9z"/>
</svg>
