<?xml version="1.0" encoding="utf-8"?>
<!-- Generator: Adobe Illustrator 21.0.0, SVG Export Plug-In . SVG Version: 6.00 Build 0)  -->
<svg version="1.1" id="Слой_1" xmlns="http://www.w3.org/2000/svg" xmlns:xlink="http://www.w3.org/1999/xlink" x="0px" y="0px"
	 viewBox="0 0 128 160" style="enable-background:new 0 0 128 160;" xml:space="preserve">
<style type="text/css">
	.st0{fill:#FFFFFF;}
</style>
<path class="st0" d="M106.8,7.6c0,0-3.6,14.6-8,21.5c-0.3,0.4-0.5,0.8-0.8,1.1c-5.3-6.1-18.2-11.1-34-11.1S35.3,24,29.9,30.2
	c-0.3-0.3-0.5-0.7-0.8-1.1c-4.4-6.9-8-21.5-8-21.5s-3.3,20.3-2.6,35.5c0.7,14.4,3.4,21.4,5.6,23.6c1,1,1.9,1.7,2.8,2.3l-0.6,24l0,0
	v0.1c-0.1,2.4,1.6,5.1,3.7,6.1l15.5,7.7c2.1,1,5.8,2,8.1,2h20.5c2.4,0,6-0.9,8.1-2l15.5-7.7c2.1-1,3.8-3.8,3.7-6.2L101,69
	c0.9-0.6,1.8-1.4,2.8-2.3c2.2-2.1,4.9-9.2,5.6-23.6C110.1,27.9,106.8,7.6,106.8,7.6z M95.2,93.9l-15.5,7.7c-1.3,0.7-4.1,1.3-5.4,1.3
	H53.8c-1.4,0-4.1-0.7-5.5-1.4l-15.5-7.7c-0.1-0.1-0.3-0.5-0.4-0.7l0.5-21l0,0c0.3,0.2,0.8,0.4,1.2,0.6c0.3,0.1,0.6,0.3,0.9,0.4
	s0.7,0.3,1,0.4c0.4,0.1,0.7,0.2,1.1,0.3c2.2,0.5,14.5,2.5,20.8,3.6l6,6l-2.7-10.1l-0.8-6.8c0,0,0-2-0.7-5.1c0-0.1,0-0.2-0.1-0.2
	c-0.8-3.1-2.4-7.2-5.6-11.3c-2.6-3.3-7.1-7.1-11.4-10.3c-0.3-0.2-0.6-0.4-0.9-0.6c-1.1-0.8-2.3-1.6-3.3-2.4
	c-0.3-0.2-0.5-0.4-0.8-0.5c-0.5-0.4-1-0.7-1.5-1s-0.9-0.6-1.3-0.9c-0.1-0.1-0.2-0.2-0.4-0.2c4-4.5,15.1-8.9,29.4-8.9
	c14.2,0,25.3,4.4,29.4,8.9c-0.1,0.1-0.2,0.1-0.3,0.2c-0.4,0.3-0.9,0.6-1.3,0.9c-0.5,0.3-1,0.7-1.5,1c-0.3,0.2-0.5,0.4-0.8,0.5
	c-1.1,0.7-2.2,1.5-3.3,2.4c-0.3,0.2-0.6,0.4-0.9,0.6c-4.3,3.2-8.8,7-11.4,10.3c-3.2,4.1-4.8,8.2-5.6,11.3c0,0.1,0,0.2-0.1,0.2
	c-0.7,3.1-0.7,5.1-0.7,5.1l-0.8,6.8L64,83.5l6-6c6.3-1.1,18.6-3.1,20.8-3.6c0.4-0.1,0.7-0.2,1.1-0.3c0.4-0.1,0.7-0.2,1-0.4
	c0.3-0.1,0.6-0.3,0.9-0.4c0.4-0.2,0.9-0.4,1.2-0.6l0,0l0.5,21C95.6,93.3,95.3,93.7,95.2,93.9z M38.7,66.9L39,56.7l17.7,9.2l0.2,5
	L38.7,66.9z M89.3,66.9l-18.2,4l0.2-5L89,56.7L89.3,66.9z"/>
</svg>
