<?xml version="1.0" encoding="utf-8"?>
<!-- Generator: Adobe Illustrator 21.0.0, SVG Export Plug-In . SVG Version: 6.00 Build 0)  -->
<svg version="1.1" id="Слой_1" xmlns="http://www.w3.org/2000/svg" xmlns:xlink="http://www.w3.org/1999/xlink" x="0px" y="0px"
	 viewBox="0 0 128 160" style="enable-background:new 0 0 128 160;" xml:space="preserve">
<style type="text/css">
	.st0{fill:#FFFFFF;}
</style>
<g>
	<path class="st0" d="M72.3,71.8h7.9l6.5-1.4l4-3.9l-1.6-4.2c-0.2,0-19.7,3.7-19.7,3.7l-0.7,2l1.3,2.1L72.3,71.8z"/>
	<path class="st0" d="M100.2,34.3c0-1-0.5-1.9-1-2.7C94.6,24.8,81,19.1,64,19.1c-17.1,0-30.7,5.8-35.2,12.6c-0.5,0.8-1,1.6-1,2.6
		L26.4,93l0,0v0.1c-0.1,2.4,1.6,5.1,3.7,6.1l15.5,7.7c2.1,1,5.8,2,8.1,2h20.5c2.4,0,6-0.9,8.1-2l15.5-7.7c2.1-1,3.8-3.8,3.7-6.2
		L100.2,34.3z M32.9,69.5l3.9-11.1l-3.1-18.1l0.1-5.3l0,0c2.2-3.3,8.3-6.7,16.9-8.5c1.3,5.3,4.7,17.7,6.4,17.7c2.1,0,11.8,0,13.9,0
		c1.7,0,5-12.4,6.4-17.7c8.6,1.8,14.7,5.3,16.9,8.5l0,0l0.1,5.3l-3.1,18.1l3.9,11.1l0.2,6.9c-1.4,1.7-9.1,11.4-9.1,11.4v3.8
		l-5.9,3.1l-3.5-3.5H51.3l-3.5,3.5l-5.9-3.1v-3.8c0,0-7.8-9.7-9.1-11.4L32.9,69.5z M95.2,93.9l-15.5,7.7c-1.1,0.5-3,1.1-4.4,1.3
		v-0.4c0,0,0-0.7-0.3-1c-0.5-0.5-3.5-2.5-4.1-2.5s-13.1,0-13.7,0s-3.6,2-4.1,2.5c-0.3,0.3-0.3,1-0.3,1v0.4c-1.4-0.2-3.4-0.7-4.4-1.3
		l-15.5-7.7c-0.1-0.1-0.3-0.5-0.4-0.7l0.3-11.6l5.8,6.2v4.9l9.8,4.7l3.4-3.6h24.7l3.4,3.6l9.8-4.7v-4.9l5.8-6.2l0.3,11.6
		C95.6,93.4,95.3,93.8,95.2,93.9z"/>
	<path class="st0" d="M55.7,71.8l2.3-1.7l1.3-2.1l-0.7-2c0,0-19.5-3.7-19.7-3.7l-1.6,4.2l4,3.9l6.5,1.4
		C47.8,71.8,55.7,71.8,55.7,71.8z"/>
</g>
</svg>
