<?xml version="1.0" encoding="utf-8"?>
<!-- Generator: Adobe Illustrator 21.0.0, SVG Export Plug-In . SVG Version: 6.00 Build 0)  -->
<svg version="1.1" id="Слой_1" xmlns="http://www.w3.org/2000/svg" xmlns:xlink="http://www.w3.org/1999/xlink" x="0px" y="0px"
	 viewBox="0 0 128 160" style="enable-background:new 0 0 128 160;" xml:space="preserve">
<style type="text/css">
	.st0{fill:#FFFFFF;}
</style>
<g>
	<path class="st0" d="M100.9,61.4c0.4-5,0.7-11.8,0.8-16.2c0-0.4,0-2.6,0-3c0-1,0,1.9-0.1,0.9c-0.1-1.5-0.3-6.8-0.5-8.2
		c-0.5-4.3-0.6-6.8-5.2-11s-14.3-6.2-16.2-6.7c-0.2-0.1-0.4-0.1-0.6-0.1c-4.5-1-7.7-0.4-7.7-0.4l0,0l0,0l0,0l0,0l0,0l0,0l0,0l0,0
		l0,0l0,0l0,0c-0.1,0-0.2-0.1-0.3-0.2l0,0H71l0,0c0,0-0.1,0-0.1-0.1l0,0c-0.3-0.1-0.6-0.3-1.1-0.4l0,0c-0.1,0-0.2-0.1-0.3-0.1l0,0
		c-0.1,0-0.2-0.1-0.3-0.1l0,0c-0.6-0.2-1.3-0.3-2.2-0.5c0,0,0,0-0.1,0s-0.3-0.1-0.4-0.1c0,0,0,0-0.1,0C66.2,15,66,15,65.9,15l0,0
		c-0.7-0.1-1.4-0.2-2.2-0.3l0,0l0,0c-1-0.1-2.1-0.3-3.4-0.4c-9.7-0.9-21.1,6.5-24.7,8.8S31.2,28,31.2,28s-2.4,0.5-4.8,3.9
		c-1.8,2.6-0.2,24.4,0.6,34.8L26.4,93l0,0v0.1c-0.1,2.4,1.6,5.1,3.7,6.1l15.5,7.7c2.1,1,5.8,2,8.1,2h20.5c2.4,0,6-0.9,8.1-2
		l15.5-7.7c2.1-1,3.8-3.8,3.7-6.2L100.9,61.4z M95.2,93.9l-15.5,7.7c-1.3,0.7-4.1,1.3-5.4,1.3H53.8c-1.4,0-4.1-0.7-5.5-1.4
		l-15.5-7.7c-0.1-0.1-0.3-0.5-0.4-0.7l1-40.3c0.1-0.4,0.2-0.7,0.3-1.1c1.1-4.6,1.6-10.4,1.6-10.4s4-0.6,10.3,1.7
		c6.4,2.2,11.6,5.8,11.6,5.8s-1.7,3.5,0,4.8c1.1,0.8,4.3,1,6.7,1.6H64c0.1,0,0.1,0,0.2,0.1h0.1c0.1,0,0.1,0,0.2,0.1h0.1
		c0.1,0,0.1,0,0.2,0.1h0.1c0.1,0,0.2,0.1,0.3,0.1h0.1c0.1,0,0.1,0.1,0.2,0.1h0.1c0.1,0,0.1,0.1,0.2,0.1h0.1c0.1,0,0.1,0.1,0.2,0.1
		c0,0,0,0,0.1,0s0.1,0.1,0.2,0.2l0,0c0.1,0,0.1,0.1,0.2,0.1c0,0,0,0,0.1,0.1l0.1,0.1c0,0,0,0,0.1,0.1l0.1,0.1c0,0,0,0,0,0.1
		s0.1,0.1,0.1,0.2l0,0c0,0.1,0.1,0.2,0.1,0.3v0.1c0,0.1,0,0.1,0,0.2v0.1c0,0.1,0,0.1,0,0.2v0.1c0,0.1,0,0.1-0.1,0.2v0.1
		c0,0.1-0.1,0.2-0.1,0.3l0,0c0,0.1-0.1,0.2-0.2,0.3c0,0,0,0.1-0.1,0.1c0,0.1-0.1,0.1-0.1,0.2l-0.1,0.1c0,0.1-0.1,0.1-0.2,0.2
		l-0.1,0.1c-0.1,0.1-0.1,0.1-0.2,0.2l-0.1,0.1c-0.1,0.1-0.2,0.2-0.3,0.3l0,0c-0.1,0.1-0.2,0.2-0.3,0.3c0,0,0,0-0.1,0.1
		S65,60.6,65,60.7l-0.1,0.1c-0.1,0.1-0.2,0.1-0.2,0.2c0,0-0.1,0-0.1,0.1c-0.1,0.1-0.2,0.1-0.3,0.2c0,0,0,0-0.1,0.1
		c-0.2,0.2-0.5,0.3-0.7,0.5c-1.2,0.9-2.3,1.5-2.3,1.5s0.9,0,2.3-0.3l0,0l0,0c0.4-0.1,0.7-0.1,1.2-0.2l0,0c0.1,0,0.2-0.1,0.4-0.1h0.1
		c0.1,0,0.2,0,0.3-0.1h0.1c0.1,0,0.2-0.1,0.3-0.1c0.1,0,0.1,0,0.2,0s0.2-0.1,0.3-0.1c0.1,0,0.1,0,0.2,0s0.2-0.1,0.3-0.1H67
		c0.2,0,0.3-0.1,0.5-0.2l0,0c0.2-0.1,0.3-0.1,0.5-0.2c0.1,0,0.1,0,0.2-0.1c0.1,0,0.2-0.1,0.3-0.1c0.1,0,0.1,0,0.2-0.1
		c0.1,0,0.2-0.1,0.3-0.1c0.1,0,0.1-0.1,0.2-0.1s0.2-0.1,0.3-0.1c0.1,0,0.1-0.1,0.2-0.1s0.2-0.1,0.3-0.1c0.1,0,0.1-0.1,0.2-0.1
		c0.1-0.1,0.2-0.1,0.3-0.2c0.1,0,0.1-0.1,0.2-0.1c0.2-0.1,0.3-0.2,0.5-0.3l0,0c1.3-0.7,1.8-1.6,1.9-2.6c0.1-3.1-4-7-4-7
		s2.8-0.3,6.1-1c0.3-0.1,0.7-0.1,1.1-0.2c2-0.4,4-0.9,5.6-1.6c1.5-0.6,3.2-1.4,4.8-2.2c0.3-0.2,0.6-0.3,1-0.5
		c1.4-0.7,3.3-2.8,3.3-2.8s0.6,0.2,0.6,1.2c0,1.8,1.8,5,2.3,7.4c0.1,0.5,0.2,1,0.3,1.4c0.1,0.2,0.1,0.4,0.2,0.6l1,40
		C95.6,93.3,95.3,93.7,95.2,93.9z"/>
	<polygon class="st0" points="43.1,67.9 58.6,70 58.6,65.9 43.1,63.8 	"/>
	<polygon class="st0" points="69.4,70 84.9,67.9 84.9,63.8 69.4,65.9 	"/>
</g>
</svg>
