<?xml version="1.0" encoding="utf-8"?>
<!-- Generator: Adobe Illustrator 21.0.0, SVG Export Plug-In . SVG Version: 6.00 Build 0)  -->
<svg version="1.1" id="Слой_1" xmlns="http://www.w3.org/2000/svg" xmlns:xlink="http://www.w3.org/1999/xlink" x="0px" y="0px"
	 viewBox="0 0 128 160" style="enable-background:new 0 0 128 160;" xml:space="preserve">
<style type="text/css">
	.st0{fill:#FFFFFF;}
</style>
<path class="st0" d="M98.4,24.8c-2.9-3.6-8-4.4-8-4.4s-3.8-3.6-10.3-5.6c-7.3-2.1-29.9-1.8-41,3.2S27.3,28.5,26.4,33.3
	c-0.3,1.5-0.4,4.2-0.5,7.3c-2.4-1.7-4.1-3.6-4.1-3.6s-2.2,3.3-0.9,5.6c1.6,2.8,3.1,4.3,4.4,4.9c-0.1,0-0.3,0.1-0.4,0
	c-1.8-0.2-5.6-0.5-5.6-0.5s0.1,4.6,1.8,6.6c0.9,1.1,3.1,2.6,5.1,3.6c0,0.9,0.1,1.6,0.1,2.1c0.1,1.5,0.4,3.6,0.7,5.7l-0.6,28l0,0v0.1
	c-0.1,2.4,1.6,5.1,3.7,6.1l15.5,7.7c2.1,1,5.8,2,8.1,2h20.5c2.4,0,6-0.9,8.1-2l15.5-7.7c2.1-1,3.8-3.8,3.7-6.2l-0.7-28.4
	c0.3-3.3,0.5-6.6,0.7-8.6C102.3,47.9,101.3,28.4,98.4,24.8z M95.2,93.9l-15.5,7.7c-1.3,0.7-4.1,1.3-5.4,1.3H53.8
	c-1.4,0-4.1-0.7-5.5-1.4l-15.5-7.7c-0.1-0.1-0.3-0.5-0.4-0.7l0.9-34.9c1.2-1.3,2.4-2.3,3.4-2.7c0.5-0.2,1.2-0.5,1.9-0.8
	c-1.8,2.5-3.5,4.9-3.9,5.9c-0.9,2.6-1.1,4.7-1.1,4.7s1.6,10.2,3.4,13s3.3,6,3.3,6l-1.2-5.1l5.9,4.7h4.2L62,78.6h2h2L78.7,84h4.2
	l5.9-4.7l-1.2,5.1c0,0,1.5-3.2,3.3-6s3.4-13,3.4-13s-0.2-2.1-1.1-4.7s-9.7-13.5-9.7-13.5l4.8,10.2v2c0,0-8.4,2.7-12.4,6.6
	s-9.7,5.5-9.7,5.5H64h-2.3c0,0-5.8-1.6-9.7-5.5s-12.4-6.6-12.4-6.6v-2l2-4.1c2.8-1.4,5.5-2.4,5.5-0.3c0,3.6-4.1,4.7-4.1,4.7
	s7.7,0,15.6-2.4s13.8-8.8,17.8-10.4s12-0.5,17.6,6.6c0.2,0.3,0.5,0.6,0.7,1l1,40.6C95.6,93.3,95.3,93.7,95.2,93.9z M39.2,65.1
	l20.4,8.8L57.8,77L39,73.6L39.2,65.1z M68.4,73.9l20.4-8.8l0.3,8.5l-12.7,2.3L70.2,77L68.4,73.9z"/>
</svg>
