<?xml version="1.0" encoding="utf-8"?>
<!-- Generator: Adobe Illustrator 21.0.0, SVG Export Plug-In . SVG Version: 6.00 Build 0)  -->
<svg version="1.1" id="Слой_1" xmlns="http://www.w3.org/2000/svg" xmlns:xlink="http://www.w3.org/1999/xlink" x="0px" y="0px"
	 viewBox="0 0 128 160" style="enable-background:new 0 0 128 160;" xml:space="preserve">
<style type="text/css">
	.st0{fill:#FFFFFF;}
</style>
<path class="st0" d="M103.5,65.2c0-4.5,0-4.9,0-6.4c0-1.3-0.9-2.5-2.4-2.7c0.2-2.5,0.6-4.4,0.6-5c0-0.9,1-13.3-0.4-18
	s-1.1-6.4-3.2-7.4c-1.4-0.6-4.7,0-4.7,0s1.6-2.4,1.4-3.5s-6-4.9-4.9-3.1c1,1.6,0.4,4.1,0.3,4.5c0-0.3-0.3-1.7-8.6-5.3
	c-4.9-2.2-12.7-2.4-19.9-2c-6.6,0.4-12.7,1.4-15.6,2c-6.3,1.3-16.1,9.3-17,11S25.9,36,25.9,36s-0.4,0.8-1.4,0.8
	c-0.9,0-2.3-1.7-1.9,0s1.7,4.1,1.7,4.1s-1.2-0.3-2.6-0.9c-1.4-0.6-3.6-2-3.6-2s0,0,0.2,3.3s5.3,12.8,7.5,13.5
	c0.2,0.1,0.5,0.1,0.9,0.2v1.3c-1.3,0.3-2.2,1.4-2.2,2.7c0,1.5,0,2,0,6.4c0,5.2-0.1,9.4,1.4,10.4c0.3,0.2,0.6,0.4,0.9,0.6L26.4,93
	l0,0v0.1c-0.1,2.4,1.6,5.1,3.7,6.1l15.5,7.7c2.1,1,5.8,2,8.1,2h20.5c2.4,0,6-0.9,8.1-2l15.5-7.7c2.1-1,3.8-3.8,3.7-6.2l-0.4-16.1
	l0,0c0,0,0-0.3,0-0.8c0.3-0.2,0.6-0.4,0.9-0.6C103.6,74.6,103.5,70.3,103.5,65.2z M33.3,56l0.1-2.4c2.4-0.1,5-0.4,6.9-0.8
	c4.7-1.1,11.2-5.7,11.2-5.7c0.7,1.2-0.6,1.5-1.4,3.9c-0.8,2.3,1.6,3.8,1.6,3.8s0.3-2.5,2.8-5.6c2.8-3.4,6.7-1.2,6.7-1.2
	c4.3,1.9,8.6,0.8,10.5,0.3s7.5-4.6,11.1-5.2s9.7,1.8,11.1,2.6c0.3,0.1,0.5,0.3,0.7,0.6l0.2,9.8C81.1,56,46.9,56,33.3,56z M94.4,62.9
	v2.7c0,1.6-1.3,2.9-2.9,2.9h-55c-1.6,0-2.9-1.3-2.9-2.9v-2.7c0-1.6,1.3-2.9,2.9-2.9h55C93.1,59.9,94.4,61.3,94.4,62.9z M95.2,93.9
	l-15.5,7.7c-1.3,0.7-4.1,1.3-5.4,1.3H53.8c-1.4,0-4.1-0.7-5.5-1.4l-15.5-7.7c-0.1-0.1-0.3-0.5-0.4-0.7l0.4-15.7c4.5,0,22,0,23.2,0
	c1.3,0,2.6-1.1,2.6-1.1l2.1-5h6.9l2.1,5c0,0,1.3,1.1,2.6,1.1c1.2,0,18.7,0,23.2,0L95.9,93C95.6,93.3,95.3,93.7,95.2,93.9z"/>
</svg>
