<?xml version="1.0" encoding="utf-8"?>
<!-- Generator: Adobe Illustrator 21.0.0, SVG Export Plug-In . SVG Version: 6.00 Build 0)  -->
<svg version="1.1" id="Layer_1" xmlns="http://www.w3.org/2000/svg" xmlns:xlink="http://www.w3.org/1999/xlink" x="0px" y="0px"
	 viewBox="0 0 480 480" style="enable-background:new 0 0 480 480;" xml:space="preserve">
<style type="text/css">
	.st0{fill:#FFFFFF;}
</style>
<g>
	<g>
		<path class="st0" d="M376,384v28.7l-30.1-30.1c14.3-26.2,22.1-54.4,22.1-83.4V296h16v-16h-16v-72c0-4.4-3.6-8-8-8h-56v-48
			c0-4.4-3.6-8-8-8h-24v-24C272,53.8,218.2,0,152,0S32,53.8,32,120v24H8c-4.4,0-8,3.6-8,8v56v40v40v40v40v24c0,22.1,17.9,40,40,40
			h131.7c18,17.8,39.6,33.8,64.5,47.1c1.2,0.6,2.5,0.9,3.8,0.9s2.6-0.3,3.8-0.9c40.4-21.5,72.2-50,93.6-82.4l27.3,27.3H336v16h48
			c4.4,0,8-3.6,8-8v-48H376z M48,120C48,62.7,94.7,16,152,16s104,46.7,104,104v24h-24v-24c0-44.1-35.9-80-80-80s-80,35.9-80,80v24
			H48V120z M216,120v24H88v-24c0-35.3,28.7-64,64-64S216,84.7,216,120z M16,216h48v24H16V216z M16,256h48v24H16V256z M16,296h48v24
			H16V296z M16,336h48v24H16V336z M40,416c-13.2,0-24-10.8-24-24v-16h56c4.4,0,8-3.6,8-8v-40v-40v-40v-40c0-4.4-3.6-8-8-8H16v-40
			h272v40H120c-4.4,0-8,3.6-8,8v91.2c0,41.8,16.1,82.2,45.1,116.8H40z M240,462.9c-70.2-38.8-112-99.7-112-163.7V216h224v64h-16v-40
			c0-4.4-3.6-8-8-8H152c-4.4,0-8,3.6-8,8v43.8c0,64.8,35.3,124.3,92.2,155.3c1.2,0.6,2.5,1,3.8,1s2.6-0.3,3.8-1
			c29.2-15.9,52.7-39.4,68.6-67.2l13.3,13.3C306.5,415.4,277.3,442.3,240,462.9z M240,280c-3.2,0-6.2,2-7.4,4.9
			c-1.2,3-0.6,6.4,1.7,8.7l66.4,66.4c-13.9,25.7-34.6,47.6-60.7,62.8c-49.5-28.7-80-81.6-80-139.1V248h160v32H240z M319.5,296
			c-1.3,16.9-5.2,33.3-11.5,48.7L259.3,296H319.5z M334.1,370.7l-13.9-13.9c8.6-19,14-39.5,15.4-60.8H352v3.2
			C352,323.9,345.7,348.1,334.1,370.7z"/>
	</g>
</g>
<g>
	<g>
		<rect x="400" y="280" class="st0" width="16" height="16"/>
	</g>
</g>
<g>
	<g>
		<rect x="432" y="280" class="st0" width="16" height="16"/>
	</g>
</g>
<g>
	<g>
		<rect x="464" y="280" class="st0" width="16" height="16"/>
	</g>
</g>
<g>
	<g>
		<rect x="432" y="64" class="st0" width="16" height="16"/>
	</g>
</g>
<g>
	<g>
		<rect x="464" y="64" class="st0" width="16" height="16"/>
	</g>
</g>
<g>
	<g>
		<path class="st0" d="M464,144h-92.7l18.3-18.3l-11.3-11.3l-32,32c-3.1,3.1-3.1,8.2,0,11.3l32,32l11.3-11.3L371.3,160H464V144z"/>
	</g>
</g>
<g>
	<g>
		<path class="st0" d="M480,216h-68.7l18.3-18.3l-11.3-11.3l-32,32c-3.1,3.1-3.1,8.2,0,11.3l32,32l11.3-11.3L411.3,232H480V216z"/>
	</g>
</g>
<g>
	<g>
		<path class="st0" d="M416,64h-92.7l18.3-18.3l-11.3-11.3l-32,32c-3.1,3.1-3.1,8.2,0,11.3l32,32l11.3-11.3L323.3,80H416V64z"/>
	</g>
</g>
</svg>
