<?xml version="1.0" encoding="utf-8"?>
<!-- Generator: Adobe Illustrator 21.0.0, SVG Export Plug-In . SVG Version: 6.00 Build 0)  -->
<svg version="1.1" id="Layer_1" xmlns="http://www.w3.org/2000/svg" xmlns:xlink="http://www.w3.org/1999/xlink" x="0px" y="0px"
	 viewBox="0 0 496 496" style="enable-background:new 0 0 496 496;" xml:space="preserve">
<style type="text/css">
	.st0{fill:#FFFFFF;}
</style>
<g>
	<g>
		<g>
			<rect x="160" y="448" class="st0" width="64" height="16"/>
			<path class="st0" d="M456,200h-72V40c0-22.1-17.9-40-40-40H40C17.9,0,0,17.9,0,40v416c0,22.1,17.9,40,40,40h304
				c22.1,0,40-17.9,40-40V280h72c22.1,0,40-17.9,40-40S478.1,200,456,200z M16,40c0-13.2,10.8-24,24-24h304c13.2,0,24,10.8,24,24v8
				H16V40z M368,456c0,13.2-10.8,24-24,24H40c-13.2,0-24-10.8-24-24v-24h352V456z M368,416H16V64h352v136H165.9l-53.3,30.5
				c4.5-42,38.7-75.1,81-78.2c3.4,9.1,12.1,15.7,22.4,15.7c13.2,0,24-10.8,24-24s-10.8-24-24-24c-10.5,0-19.4,6.9-22.6,16.3
				c-34.3,2.2-64.1,21-81.4,48.5v-50.3c9.3-3.3,16-12.1,16-22.5c0-13.2-10.8-24-24-24s-24,10.8-24,24c0,10.4,6.7,19.2,16,22.5v105.4
				l-0.1,0.1l0.1,0.1v105.4c-9.3,3.3-16,12.1-16,22.5c0,13.2,10.8,24,24,24s24-10.8,24-24c0-10.4-6.7-19.2-16-22.5v-50.3
				c17.3,27.5,47.1,46.3,81.4,48.5c3.2,9.5,12.1,16.3,22.6,16.3c13.2,0,24-10.8,24-24s-10.8-24-24-24c-10.3,0-19,6.6-22.4,15.7
				c-42.4-3.1-76.5-36.2-81-78.2l53.3,30.5H368V416z M168,217.2v45.6L128.1,240L168,217.2z M208,144c0-4.4,3.6-8,8-8s8,3.6,8,8
				s-3.6,8-8,8S208,148.4,208,144z M104,120c-4.4,0-8-3.6-8-8s3.6-8,8-8s8,3.6,8,8S108.4,120,104,120z M112,368c0,4.4-3.6,8-8,8
				s-8-3.6-8-8s3.6-8,8-8S112,363.6,112,368z M208,336c0-4.4,3.6-8,8-8s8,3.6,8,8s-3.6,8-8,8S208,340.4,208,336z M384,264H184v-16
				h200V264z M384,232H184v-16h200V232z M416,264h-16v-48h16V264z M456,264h-24v-48h24c13.2,0,24,10.8,24,24S469.2,264,456,264z"/>
		</g>
	</g>
</g>
</svg>
