<?xml version="1.0" encoding="utf-8"?>
<!-- Generator: Adobe Illustrator 21.0.0, SVG Export Plug-In . SVG Version: 6.00 Build 0)  -->
<svg version="1.1" id="Capa_1" xmlns="http://www.w3.org/2000/svg" xmlns:xlink="http://www.w3.org/1999/xlink" x="0px" y="0px"
	 viewBox="0 0 480 480" style="enable-background:new 0 0 480 480;" xml:space="preserve">
<style type="text/css">
	.st0{fill:#FFFFFF;}
</style>
<g>
	<g>
		<rect x="424" y="144" class="st0" width="24" height="16"/>
	</g>
</g>
<g>
	<g>
		
			<rect x="404.7" y="88" transform="matrix(0.7071 -0.7071 0.7071 0.7071 53.9807 322.2617)" class="st0" width="22.6" height="16"/>
	</g>
</g>
<g>
	<g>
		
			<rect x="408" y="196.7" transform="matrix(0.7071 -0.7071 0.7071 0.7071 -25.2124 355.0603)" class="st0" width="16" height="22.6"/>
	</g>
</g>
<g>
	<g>
		<path class="st0" d="M440,48h-64V24c0-13.2-10.8-24-24-24c-10.3,0-19.1,6.6-22.5,15.8l-87,32.2H40C17.9,48,0,65.9,0,88v256
			c0,22.1,17.9,40,40,40h157.8l-12,48H128c-4.4,0-8,3.6-8,8c0,22.1,17.9,40,40,40h160c22.1,0,40-17.9,40-40c0-4.4-3.6-8-8-8h-57.8
			l-12-48H440c22.1,0,40-17.9,40-40V88C480,65.9,462.1,48,440,48z M376,136h8c4.4,0,8,3.6,8,8v16c0,4.4-3.6,8-8,8h-8V136z M344,24
			L344,24c0-4.5,3.6-8,8-8c4.4,0,8,3.6,8,8v32v72v48v103.1c0,3-1.5,5.8-3.7,7.4c-0.2,0.2-0.4,0.3-0.7,0.5c-0.4,0.2-0.9,0.4-1.4,0.5
			c-0.5,0.2-1,0.3-1.6,0.3c-0.6,0.1-1.3,0-1.9-0.1c-0.5-0.1-1-0.1-1.4-0.3c-0.6-0.2-1.2-0.6-1.7-0.9c-0.4-0.2-0.8-0.4-1.1-0.7
			c-0.2-0.2-0.4-0.5-0.6-0.7c-0.4-0.5-0.8-1-1.1-1.6c-0.1-0.3-0.3-0.6-0.4-0.9c-0.3-0.8-0.5-1.6-0.5-2.5c0,0,0-0.1,0-0.1L344,24
			L344,24z M328,33.4v237.2l-184-68.2V101.6L328,33.4z M288,448h54.6c-3.3,9.3-12.2,16-22.6,16H160c-10.4,0-19.3-6.7-22.6-16H192
			H288z M202.2,432l12-48h51.5l12,48H202.2z M464,344c0,13.2-10.8,24-24,24H272h-64H40c-13.2,0-24-10.8-24-24v-8h448V344z M464,320
			H16V88c0-13.2,10.8-24,24-24h159.4l-64.8,24H72c-22.1,0-40,17.9-40,40v48c0,19.3,13.8,35.5,32,39.2V272c0,13.2,10.8,24,24,24h16
			c13.2,0,24-10.8,24-24v-56h6.6l194.9,72.2c0.1,0.2,0.2,0.3,0.2,0.5c0.7,1.7,1.5,3.4,2.5,4.9c0.2,0.3,0.4,0.5,0.6,0.7
			c0.9,1.3,2,2.4,3.1,3.5c0.2,0.2,0.3,0.4,0.5,0.6c0.3,0.3,0.7,0.4,1,0.7c0.7,0.6,1.5,1.1,2.3,1.6c0.6,0.4,1.2,0.7,1.9,1
			c0.9,0.4,1.8,0.8,2.7,1.1c0.6,0.2,1.3,0.4,1.9,0.6c1,0.2,2,0.4,3,0.5c0.7,0.1,1.3,0.2,2,0.2c0.2,0,0.4,0.1,0.7,0.1
			c0.8,0,1.5-0.2,2.3-0.2c0.6,0,1.1,0,1.7-0.1c0.2,0,0.3-0.1,0.5-0.1c0.5-0.1,1.1-0.3,1.6-0.4c0.9-0.2,1.8-0.5,2.6-0.8
			c0.8-0.3,1.5-0.7,2.3-1.1c0.4-0.2,0.9-0.4,1.3-0.7c7-4.2,11.7-11.8,11.7-20.5v-0.9V184h8c13.2,0,24-10.8,24-24v-16
			c0-13.2-10.8-24-24-24h-8V64h64c13.2,0,24,10.8,24,24V320z M72,200c-13.2,0-24-10.8-24-24v-48c0-13.2,10.8-24,24-24h56v96h-8H72z
			 M112,216v56c0,4.4-3.6,8-8,8H88c-4.4,0-8-3.6-8-8v-56H112z"/>
	</g>
</g>
</svg>
