<svg id="Слой_1" data-name="Слой 1" xmlns="http://www.w3.org/2000/svg" xmlns:xlink="http://www.w3.org/1999/xlink" viewBox="0 0 42 42">
  <defs>
    <style>
      .cls-1 {
        fill: none;
        stroke: #fff;
        stroke-miterlimit: 10;
        opacity: 0.1;
      }

      .cls-2 {
        fill: transparent;
      }

      .cls-3 {
        fill: url(#Безымянный_градиент_2);
      }

      .cls-4 {
        fill: url(#Безымянный_градиент_2-2);
      }

      .cls-5 {
        fill: url(#Безымянный_градиент_2-3);
      }

      .cls-6 {
        fill: url(#Безымянный_градиент_2-4);
      }

      .cls-7 {
        fill: url(#Безымянный_градиент_2-5);
      }

      .cls-8 {
        fill: url(#Безымянный_градиент_2-6);
      }

      .cls-9 {
        fill: url(#Безымянный_градиент_2-7);
      }
    </style>
    <linearGradient id="Безымянный_градиент_2" data-name="Безымянный градиент 2" x1="10.41" y1="12.91" x2="15.38" y2="12.91" gradientUnits="userSpaceOnUse">
      <stop offset="0" stop-color="#608ad8"/>
      <stop offset="1" stop-color="#3a478f"/>
    </linearGradient>
    <linearGradient id="Безымянный_градиент_2-2" x1="10.41" y1="18.54" x2="15.38" y2="18.54" xlink:href="#Безымянный_градиент_2"/>
    <linearGradient id="Безымянный_градиент_2-3" x1="9" y1="15.73" x2="13.97" y2="15.73" xlink:href="#Безымянный_градиент_2"/>
    <linearGradient id="Безымянный_градиент_2-4" x1="18.19" y1="23.11" x2="33" y2="23.11" xlink:href="#Безымянный_градиент_2"/>
    <linearGradient id="Безымянный_градиент_2-5" x1="16.08" y1="14.5" x2="24.73" y2="14.5" xlink:href="#Безымянный_градиент_2"/>
    <linearGradient id="Безымянный_градиент_2-6" x1="9.75" y1="26.98" x2="19.3" y2="26.98" xlink:href="#Безымянный_градиент_2"/>
    <linearGradient id="Безымянный_градиент_2-7" x1="25.92" y1="12.21" x2="30.14" y2="12.21" xlink:href="#Безымянный_градиент_2"/>
  </defs>
  <circle class="cls-1" cx="35.5" cy="509.93" r="535"/>
  <circle class="cls-2" cx="21" cy="21" r="21"/>
  <g>
    <path class="cls-3" d="M14.67,12.21H11.11a.71.71,0,0,0,0,1.41h3.56a.71.71,0,1,0,0-1.41Z"/>
    <path class="cls-4" d="M14.67,17.84H11.11a.7.7,0,0,0,0,1.4h3.56a.7.7,0,1,0,0-1.4Z"/>
    <path class="cls-5" d="M13.27,15H9.7a.7.7,0,0,0-.7.71.7.7,0,0,0,.7.7h3.57a.7.7,0,0,0,.7-.7A.71.71,0,0,0,13.27,15Z"/>
    <path class="cls-6" d="M31.59,18.54H27.33V15.73a1.41,1.41,0,0,0-2.4-1L19.3,20.36a1.41,1.41,0,0,0,0,2l3.23,3.22L18.6,29.5a1.41,1.41,0,0,0,2,2l4.92-4.93a1.39,1.39,0,0,0,0-2l-3.22-3.23,2.23-2.23V20a1.4,1.4,0,0,0,1.4,1.4h5.67a1.41,1.41,0,1,0,0-2.81Z"/>
    <path class="cls-7" d="M22.13,11.39a1.39,1.39,0,0,0-1.77.18l-3.87,3.87a1.4,1.4,0,0,0,2,2l3.05-3.05,1,.74,1.37-1.37a2.78,2.78,0,0,1,.8-.55Z"/>
    <path class="cls-8" d="M18.31,23.34a2.7,2.7,0,0,1-.72-1.27L10.16,29.5a1.41,1.41,0,0,0,2,2l7.15-7.16Z"/>
    <circle class="cls-9" cx="28.03" cy="12.21" r="2.11"/>
  </g>
</svg>
