<svg id="Слой_1" data-name="Слой 1" xmlns="http://www.w3.org/2000/svg" xmlns:xlink="http://www.w3.org/1999/xlink" viewBox="0 0 70 70">
  <defs>
    <style>
      .cls-1 {
        fill: url(#Безымянный_градиент_3);
      }

      .cls-2 {
        fill: #fff;
      }
    </style>
    <linearGradient id="Безымянный_градиент_3" data-name="Безымянный градиент 3" x1="7.17" y1="861.83" x2="62.83" y2="806.17" gradientTransform="translate(0 -799)" gradientUnits="userSpaceOnUse">
      <stop offset="0" stop-color="#6689c6"/>
      <stop offset="1" stop-color="#3b4890"/>
    </linearGradient>
  </defs>
  <title>app_landing</title>
  <g id="grid">
    <g>
      <path class="cls-1" d="M70,45.58A24.49,24.49,0,0,1,45.58,70H24.42A24.48,24.48,0,0,1,0,45.58V24.42A24.48,24.48,0,0,1,24.42,0H45.6A24.48,24.48,0,0,1,70,24.42Z"/>
      <path class="cls-2" d="M42,21a14,14,0,0,0-7,1.87A14.15,14.15,0,0,0,28,21a14,14,0,1,0,7,26.13A14,14,0,1,0,42,21Zm0,23.84a9.55,9.55,0,0,1-3.47-.64,14,14,0,0,0,3.18-6.38H37.44a10,10,0,0,1-6,6.43,10,10,0,0,1-3.47.63,9.85,9.85,0,0,1,0-19.69,9.76,9.76,0,0,1,3.47.63,14.05,14.05,0,0,0-3.18,6.38h4.27A10,10,0,0,1,35,28.1a9.73,9.73,0,0,1,3.54-2.32A10,10,0,0,1,42,25.15a9.85,9.85,0,0,1,0,19.69Z"/>
    </g>
  </g>
</svg>
