<svg id="Слой_1" data-name="Слой 1" xmlns="http://www.w3.org/2000/svg" xmlns:xlink="http://www.w3.org/1999/xlink" viewBox="0 0 170 42">
  <defs>
    <style>
      .cls-1 {
        fill: #fff;
      }

      .cls-2 {
        fill: #3a478f;
      }

      .cls-3 {
        fill: url(#linear-gradient);
      }

      .cls-4 {
        fill: url(#linear-gradient-2);
      }

      .cls-5 {
        fill: url(#linear-gradient-3);
      }

      .cls-6 {
        fill: url(#linear-gradient-4);
      }

      .cls-7 {
        opacity: 0.2;
      }

      .cls-7, .cls-8, .cls-9 {
        isolation: isolate;
      }

      .cls-8 {
        opacity: 0.12;
      }

      .cls-9 {
        opacity: 0.25;
      }
    </style>
    <linearGradient id="linear-gradient" x1="38.9" y1="-3287.71" x2="22.12" y2="-3304.49" gradientTransform="matrix(1, 0, 0, -1, 0, -3278)" gradientUnits="userSpaceOnUse">
      <stop offset="0" stop-color="#00a0ff"/>
      <stop offset="0.01" stop-color="#00a1ff"/>
      <stop offset="0.26" stop-color="#00beff"/>
      <stop offset="0.51" stop-color="#00d2ff"/>
      <stop offset="0.76" stop-color="#00dfff"/>
      <stop offset="1" stop-color="#00e3ff"/>
    </linearGradient>
    <linearGradient id="linear-gradient-2" x1="50.94" y1="-3299" x2="26.74" y2="-3299" gradientTransform="matrix(1, 0, 0, -1, 0, -3278)" gradientUnits="userSpaceOnUse">
      <stop offset="0" stop-color="#ffe000"/>
      <stop offset="0.41" stop-color="#ffbd00"/>
      <stop offset="0.78" stop-color="orange"/>
      <stop offset="1" stop-color="#ff9c00"/>
    </linearGradient>
    <linearGradient id="linear-gradient-3" x1="41.93" y1="-3301.3" x2="19.17" y2="-3324.05" gradientTransform="matrix(1, 0, 0, -1, 0, -3278)" gradientUnits="userSpaceOnUse">
      <stop offset="0" stop-color="#ff3a44"/>
      <stop offset="1" stop-color="#c31162"/>
    </linearGradient>
    <linearGradient id="linear-gradient-4" x1="24.4" y1="-3279.18" x2="34.56" y2="-3289.34" gradientTransform="matrix(1, 0, 0, -1, 0, -3278)" gradientUnits="userSpaceOnUse">
      <stop offset="0" stop-color="#32a071"/>
      <stop offset="0.07" stop-color="#2da771"/>
      <stop offset="0.48" stop-color="#15cf74"/>
      <stop offset="0.8" stop-color="#06e775"/>
      <stop offset="1" stop-color="#00f076"/>
    </linearGradient>
  </defs>
  <title>app_landing</title>
  <g>
    <path class="cls-1" d="M163.7,0H6.3C2.83,0,0,2.36,0,5.25v31.5C0,39.64,2.83,42,6.3,42H163.7c3.47,0,6.3-2.36,6.3-5.25V5.25C170,2.36,167.17,0,163.7,0Z"/>
    <g>
      <g>
        <path class="cls-2" d="M64.48,10.79H61.57v.72h2.18a1.87,1.87,0,0,1-.5,1.22,2.32,2.32,0,0,1-1.68.67A2.34,2.34,0,0,1,59.24,11a2.34,2.34,0,0,1,2.33-2.4,2,2,0,0,1,1.65.72l.52-.53a2.43,2.43,0,0,0-.93-.67,3.12,3.12,0,0,0-1.24-.25A3.09,3.09,0,0,0,58.46,11a3.09,3.09,0,0,0,3.11,3.13,2.92,2.92,0,0,0,2.21-.88,2.75,2.75,0,0,0,.74-2A2.42,2.42,0,0,0,64.48,10.79Z"/>
        <polygon class="cls-2" points="69.13 8.74 69.13 8 65.63 8 65.63 14 69.13 14 69.13 13.26 66.4 13.26 66.4 11.36 68.86 11.36 68.86 10.64 66.4 10.64 66.4 8.74 69.13 8.74"/>
        <polygon class="cls-2" points="69.94 8 69.94 8.74 71.61 8.74 71.61 14 72.38 14 72.38 8.74 74.06 8.74 74.06 8 69.94 8"/>
        <rect class="cls-2" x="77.04" y="8" width="0.77" height="6"/>
        <polygon class="cls-2" points="78.79 8 78.79 8.74 80.46 8.74 80.46 14 81.23 14 81.23 8.74 82.91 8.74 82.91 8 78.79 8"/>
        <path class="cls-2" d="M90.71,8.78a3.11,3.11,0,0,0-4.4,0A3,3,0,0,0,85.43,11a3,3,0,0,0,.88,2.22,3.11,3.11,0,0,0,4.4,0A3,3,0,0,0,91.6,11,3.08,3.08,0,0,0,90.71,8.78Zm-.57,3.94a2.19,2.19,0,0,1-1.63.68,2.22,2.22,0,0,1-1.63-.68A2.35,2.35,0,0,1,86.22,11a2.35,2.35,0,0,1,.66-1.72,2.22,2.22,0,0,1,1.63-.68,2.19,2.19,0,0,1,1.63.68A2.32,2.32,0,0,1,90.81,11,2.32,2.32,0,0,1,90.14,12.72Z"/>
        <polygon class="cls-2" points="96.53 8 96.53 11.51 96.57 12.67 96.53 12.67 93.62 8 92.68 8 92.68 14 93.45 14 93.45 10.26 93.42 9.11 93.45 9.11 96.5 14 97.31 14 97.31 8 96.53 8"/>
      </g>
      <path class="cls-2" d="M118.91,18.5h-4.47V31h1.86V26.26h2.61a3.89,3.89,0,1,0,0-7.76Zm0,6H116.3V20.24H119a2.14,2.14,0,1,1,0,4.28ZM140.85,23l-2.14,5.42h-.07L136.43,23h-2l3.33,7.58-1.89,4.21h1.94L142.92,23Zm-55.61-.25A4.26,4.26,0,1,0,89.51,27,4.19,4.19,0,0,0,85.24,22.75Zm0,6.83A2.58,2.58,0,1,1,87.64,27,2.46,2.46,0,0,1,85.24,29.58ZM64.85,24.06v1.8h4.32a3.72,3.72,0,0,1-1,2.27,4.41,4.41,0,0,1-3.33,1.32,4.8,4.8,0,0,1,0-9.6,4.61,4.61,0,0,1,3.25,1.29l1.28-1.27a6.31,6.31,0,0,0-4.53-1.82,6.61,6.61,0,1,0,0,13.21,6.08,6.08,0,0,0,4.61-1.85A6,6,0,0,0,71,25.18a5.42,5.42,0,0,0-.1-1.12Zm11.08-1.31A4.26,4.26,0,1,0,80.2,27,4.19,4.19,0,0,0,75.93,22.75Zm0,6.83A2.58,2.58,0,1,1,78.33,27,2.46,2.46,0,0,1,75.93,29.58Zm54.56-6.85a3.5,3.5,0,0,0-3.33,1.91l1.66.69a1.76,1.76,0,0,1,1.7-.91,1.79,1.79,0,0,1,2,1.61v.12a4.13,4.13,0,0,0-1.94-.48c-1.79,0-3.6,1-3.6,2.82a2.89,2.89,0,0,0,3.1,2.75A2.63,2.63,0,0,0,132.42,30h.06v1h1.81V26.19C134.29,24,132.63,22.73,130.49,22.73Zm-.22,6.85c-.62,0-1.47-.31-1.47-1.06,0-1,1.06-1.34,2-1.34a3.29,3.29,0,0,1,1.7.42A2.25,2.25,0,0,1,130.27,29.58Zm-20.11-4.12a4,4,0,0,0-3.64-2.71,4,4,0,0,0-4,4.25,4.17,4.17,0,0,0,4.23,4.26,4.23,4.23,0,0,0,3.54-1.89l-1.45-1a2.41,2.41,0,0,1-2.09,1.17,2.16,2.16,0,0,1-2.07-1.29l5.69-2.35Zm-5.8,1.42a2.32,2.32,0,0,1,2.22-2.48,1.65,1.65,0,0,1,1.58.9ZM124,31h1.87V18.5H124ZM99.73,31h1.87V18.5H99.73Zm-3.06-7.3h-.06a3,3,0,0,0-2.24-.95,4.26,4.26,0,0,0,0,8.51,2.9,2.9,0,0,0,2.24-1h.06v.61c0,1.63-.87,2.5-2.27,2.5a2.35,2.35,0,0,1-2.14-1.51l-1.63.67a4.06,4.06,0,0,0,3.77,2.52c2.19,0,4-1.29,4-4.43V23H96.67Zm-2.14,5.88a2.58,2.58,0,0,1,0-5.15A2.39,2.39,0,0,1,96.8,27,2.38,2.38,0,0,1,94.53,29.58Z"/>
      <g>
        <path class="cls-3" d="M27.54,8.54a2,2,0,0,0-.46,1.4V32.06a2,2,0,0,0,.46,1.4l.07.08L40,21.15v-.3L27.61,8.47Z"/>
        <path class="cls-4" d="M44.13,25.28,40,21.15v-.3l4.13-4.13.1.06,4.89,2.78c1.4.79,1.4,2.09,0,2.89l-4.89,2.78Z"/>
        <path class="cls-5" d="M44.23,25.23,40,21,27.54,33.46a1.63,1.63,0,0,0,2.08.07l14.61-8.3"/>
        <path class="cls-6" d="M44.23,16.78,29.62,8.48a1.62,1.62,0,0,0-2.08.06L40,21Z"/>
        <g>
          <g class="cls-7">
            <path d="M44.13,25.13,29.62,33.38a1.68,1.68,0,0,1-2,0l-.07.07.07.08h0a1.68,1.68,0,0,0,2,0l14.61-8.31Z"/>
          </g>
          <g class="cls-8">
            <path d="M27.54,33.32a2,2,0,0,1-.46-1.41v.15a2,2,0,0,0,.46,1.4l.07-.07Z"/>
          </g>
        </g>
        <g class="cls-8">
          <path d="M49.12,22.3l-5,2.83.1.09,4.89-2.78A1.75,1.75,0,0,0,50.17,21,1.89,1.89,0,0,1,49.12,22.3Z"/>
        </g>
        <g class="cls-9">
          <path class="cls-1" d="M49.12,19.56,29.62,8.48c-1.4-.8-2.54-.14-2.54,1.46v.15c0-1.6,1.14-2.26,2.54-1.47L49.12,19.7A1.89,1.89,0,0,1,50.17,21,1.75,1.75,0,0,0,49.12,19.56Z"/>
        </g>
      </g>
    </g>
  </g>
</svg>
