<svg id="Слой_1" data-name="Слой 1" xmlns="http://www.w3.org/2000/svg" xmlns:xlink="http://www.w3.org/1999/xlink" viewBox="0 0 42 42">
  <defs>
    <style>
      .cls-1 {
        fill: #fff;
      }

      .cls-2 {
        fill: url(#Безымянный_градиент_2);
      }

      .cls-3 {
        fill: url(#Безымянный_градиент_2-2);
      }

      .cls-4 {
        fill: url(#Безымянный_градиент_2-3);
      }
    </style>
    <linearGradient id="Безымянный_градиент_2" data-name="Безымянный градиент 2" x1="9" y1="18.28" x2="19.69" y2="18.28" gradientUnits="userSpaceOnUse">
      <stop offset="0" stop-color="#608ad8"/>
      <stop offset="1" stop-color="#3a478f"/>
    </linearGradient>
    <linearGradient id="Безымянный_градиент_2-2" x1="22.31" y1="18.28" x2="33" y2="18.28" xlink:href="#Безымянный_градиент_2"/>
    <linearGradient id="Безымянный_градиент_2-3" x1="14.13" y1="24.51" x2="27.24" y2="24.51" xlink:href="#Безымянный_градиент_2"/>
  </defs>
  <title>app_landing</title>
  <g>
    <circle class="cls-1" cx="21" cy="21" r="21"/>
    <g>
      <path class="cls-2" d="M19.47,16.16l-3-3a.73.73,0,0,0-1,0l-6.2,6.2a.74.74,0,0,0,0,1l3,3a.73.73,0,0,0,1,0l6.2-6.2A.73.73,0,0,0,19.47,16.16Z"/>
      <path class="cls-3" d="M32.78,19.35l-6.2-6.2a.73.73,0,0,0-1,0l-3,3a.73.73,0,0,0,0,1l6.2,6.2a.73.73,0,0,0,1,0l3-3A.74.74,0,0,0,32.78,19.35Z"/>
      <path class="cls-4" d="M26.49,23.17l-4.62-4.62a2.25,2.25,0,0,0-1.1-.6c-.21.3-6.53,6.59-6.64,6.67a2.25,2.25,0,0,0,.59,1.08l4.47,4.46c1.6,1.6,3.19.82,3.75-.28L20.11,27A.74.74,0,0,1,21.16,26L24,28.82a2.15,2.15,0,0,0,1.19-1.57l-2.63-2.64a.74.74,0,0,1,1-1l2.91,2.9A2.19,2.19,0,0,0,26.49,23.17Z"/>
    </g>
  </g>
</svg>
