<svg id="Слой_1" data-name="Слой 1" xmlns="http://www.w3.org/2000/svg" xmlns:xlink="http://www.w3.org/1999/xlink" viewBox="0 0 42 42">
  <defs>
    <style>
      .cls-1 {
        fill: none;
        stroke: #fff;
        stroke-miterlimit: 10;
        opacity: 0.1;
      }

      .cls-2 {
        fill: transparent;
      }

      .cls-3 {
        fill: url(#Безымянный_градиент_2);
      }

      .cls-4 {
        fill: url(#Безымянный_градиент_2-2);
      }

      .cls-5 {
        fill: url(#Безымянный_градиент_2-3);
      }

      .cls-6 {
        fill: url(#Безымянный_градиент_2-4);
      }

      .cls-7 {
        fill: url(#Безымянный_градиент_2-5);
      }

      .cls-8 {
        fill: url(#Безымянный_градиент_2-6);
      }

      .cls-9 {
        fill: url(#Безымянный_градиент_2-7);
      }
    </style>
    <linearGradient id="Безымянный_градиент_2" data-name="Безымянный градиент 2" x1="20.3" y1="10.61" x2="21.7" y2="10.61" gradientUnits="userSpaceOnUse">
      <stop offset="0" stop-color="#608ad8"/>
      <stop offset="1" stop-color="#3a478f"/>
    </linearGradient>
    <linearGradient id="Безымянный_градиент_2-2" x1="14.67" y1="13.07" x2="17.48" y2="13.07" xlink:href="#Безымянный_градиент_2"/>
    <linearGradient id="Безымянный_градиент_2-3" x1="24.52" y1="13.07" x2="27.33" y2="13.07" xlink:href="#Безымянный_градиент_2"/>
    <linearGradient id="Безымянный_градиент_2-4" x1="30.14" y1="23.61" x2="33" y2="23.61" xlink:href="#Безымянный_градиент_2"/>
    <linearGradient id="Безымянный_градиент_2-5" x1="9" y1="23.61" x2="11.86" y2="23.61" xlink:href="#Безымянный_градиент_2"/>
    <linearGradient id="Безымянный_градиент_2-6" x1="17.06" y1="23.61" x2="28.73" y2="23.61" xlink:href="#Безымянный_градиент_2"/>
    <linearGradient id="Безымянный_градиент_2-7" x1="13.27" y1="23.52" x2="27.52" y2="23.52" xlink:href="#Безымянный_градиент_2"/>
  </defs>
  <circle class="cls-1" cx="-17.5" cy="508.93" r="535"/>
  <circle class="cls-2" cx="21" cy="21" r="21"/>
  <g>
    <path class="cls-3" d="M21,8.85a.7.7,0,0,0-.7.7v2.11a.7.7,0,0,0,1.4,0V9.55A.7.7,0,0,0,21,8.85Z"/>
    <path class="cls-4" d="M17.28,13.27l-1.41-1.4a.7.7,0,1,0-1,1l1.4,1.41a.71.71,0,0,0,1-1Z"/>
    <path class="cls-5" d="M27.12,11.87a.69.69,0,0,0-1,0l-1.41,1.4a.71.71,0,0,0,1,1l1.4-1.41A.69.69,0,0,0,27.12,11.87Z"/>
    <path class="cls-6" d="M32.3,18.69H30.14v9.85H32.3a.7.7,0,0,0,.7-.71V19.4A.7.7,0,0,0,32.3,18.69Z"/>
    <path class="cls-7" d="M9.7,18.69a.7.7,0,0,0-.7.71v8.43a.7.7,0,0,0,.7.71h2.16V18.69Z"/>
    <path class="cls-8" d="M20.46,19.4a1.38,1.38,0,0,0-1.25.77l-2.15,4.29a2.93,2.93,0,0,0,1.13.23,2.78,2.78,0,0,0,2.51-1.56l.47-.92h1.36a1.41,1.41,0,0,1,1,.41l5.21,5.21V19.4Z"/>
    <path class="cls-9" d="M22.53,23.61H22L22,23.7a4.27,4.27,0,0,1-3.43,2.38,5,5,0,0,1-2.74-.63.7.7,0,0,1-.35-1L18,19.54A2.8,2.8,0,0,1,20.46,18h3a3.46,3.46,0,0,0,.31-1.41.7.7,0,0,0-.7-.7H17.65a2.11,2.11,0,0,0-1.89,1.17l-.63,1.25a.68.68,0,0,1-.62.39H13.27v9.85h3.22l2,2a2.09,2.09,0,0,0,2.13.52l6-1.89a2.07,2.07,0,0,0,.91-.55Z"/>
  </g>
</svg>
