<svg id="Слой_1" data-name="Слой 1" xmlns="http://www.w3.org/2000/svg" xmlns:xlink="http://www.w3.org/1999/xlink" viewBox="0 0 42 42">
  <defs>
    <style>
      .cls-1 {
        fill: #fff;
      }

      .cls-2 {
        fill: url(#Безымянный_градиент_2);
      }
    </style>
    <linearGradient id="Безымянный_градиент_2" data-name="Безымянный градиент 2" x1="25.48" y1="15.25" x2="39.48" y2="15.25" gradientTransform="matrix(1, 0.01, -0.01, 1, -11.3, 5.37)" gradientUnits="userSpaceOnUse">
      <stop offset="0" stop-color="#608ad8"/>
      <stop offset="1" stop-color="#3a478f"/>
    </linearGradient>
  </defs>
  <title>app_landing</title>
  <g>
    <circle class="cls-1" cx="21" cy="21" r="21" transform="translate(-8.7 21) rotate(-45)"/>
    <path class="cls-2" d="M14,24.7a7,7,0,1,0,14,.16l0-4L14,20.7ZM25.21,13.2l2.13-2.08-.81-.84L24.2,12.57a6.87,6.87,0,0,0-3.09-.79,7,7,0,0,0-3.1.71l-2.28-2.33L14.9,11,17,13.1A7,7,0,0,0,14,18.7l0,1,14,.16,0-1A7,7,0,0,0,25.21,13.2ZM18,17.75a1,1,0,0,1-1-1,1,1,0,0,1,2,0A1,1,0,0,1,18,17.75Zm6,.07a1,1,0,0,1-1-1,1,1,0,0,1,2,0A1,1,0,0,1,24,17.82Z"/>
  </g>
</svg>
