<svg id="Слой_1" data-name="Слой 1" xmlns="http://www.w3.org/2000/svg" viewBox="0 0 170 42">
  <defs>
    <style>
      .cls-1 {
        fill: #fff;
      }

      .cls-2 {
        fill: #3a478f;
      }
    </style>
  </defs>
  <title>app_store</title>
  <path class="cls-1" d="M163.7,42H6.3C2.83,42,0,39.64,0,36.75V5.25C0,2.36,2.83,0,6.3,0H163.7c3.47,0,6.3,2.36,6.3,5.25v31.5C170,39.64,167.17,42,163.7,42Z"/>
  <g>
    <g id="_Group_" data-name=" Group ">
      <g id="_Group_2" data-name=" Group 2">
        <g id="_Group_3" data-name=" Group 3">
          <path id="_Path_" data-name=" Path " class="cls-2" d="M50.45,20.22A5.16,5.16,0,0,1,52.9,15.9a5.25,5.25,0,0,0-4.15-2.24c-1.75-.18-3.44,1-4.33,1s-2.28-1-3.75-1A5.52,5.52,0,0,0,36,16.54C34,20,35.51,25.14,37.43,28c1,1.38,2.09,2.92,3.57,2.86s2-.92,3.72-.92,2.23.92,3.73.89S51,29.4,51.91,28a11.33,11.33,0,0,0,1.57-3.22A5,5,0,0,1,50.45,20.22Z"/>
          <path id="_Path_2" data-name=" Path 2" class="cls-2" d="M47.61,11.81a5.11,5.11,0,0,0,1.16-3.63A5.16,5.16,0,0,0,45.43,9.9a4.86,4.86,0,0,0-1.19,3.5A4.27,4.27,0,0,0,47.61,11.81Z"/>
        </g>
      </g>
      <g>
        <path class="cls-2" d="M67.75,27.47H63l-1.14,3.36h-2l4.48-12.42h2.09l4.48,12.42h-2Zm-4.24-1.55h3.75l-1.85-5.45h0Z"/>
        <path class="cls-2" d="M80.61,26.3c0,2.81-1.5,4.62-3.78,4.62A3.08,3.08,0,0,1,74,29.34h0v4.48H72.08v-12h1.8v1.51h0a3.21,3.21,0,0,1,2.88-1.6C79.1,21.68,80.61,23.5,80.61,26.3Zm-1.91,0c0-1.83-1-3-2.39-3s-2.38,1.23-2.38,3,1,3.05,2.38,3.05,2.39-1.2,2.39-3.05Z"/>
        <path class="cls-2" d="M90.58,26.3c0,2.81-1.51,4.62-3.78,4.62A3.07,3.07,0,0,1,84,29.34h0v4.48H82.05v-12h1.8v1.51h0a3.21,3.21,0,0,1,2.88-1.6C89.06,21.68,90.58,23.5,90.58,26.3Zm-1.91,0c0-1.83-1-3-2.4-3s-2.37,1.23-2.37,3,.95,3.05,2.37,3.05S88.67,28.15,88.67,26.3Z"/>
        <path class="cls-2" d="M97.16,27.37c.14,1.23,1.34,2,3,2s2.69-.81,2.69-1.92-.68-1.54-2.29-1.94l-1.6-.39c-2.29-.55-3.34-1.61-3.34-3.34,0-2.15,1.86-3.62,4.51-3.62s4.43,1.47,4.49,3.62h-1.88c-.11-1.24-1.13-2-2.63-2s-2.52.76-2.52,1.86c0,.88.65,1.39,2.25,1.79l1.37.33c2.55.61,3.61,1.63,3.61,3.45,0,2.32-1.85,3.77-4.8,3.77-2.75,0-4.61-1.42-4.73-3.66Z"/>
        <path class="cls-2" d="M108.8,19.63v2.14h1.72v1.48H108.8v5c0,.77.34,1.13,1.1,1.13a4.17,4.17,0,0,0,.61,0v1.46a4.49,4.49,0,0,1-1,.09c-1.83,0-2.55-.69-2.55-2.45V23.25h-1.32V21.77h1.32V19.63Z"/>
        <path class="cls-2" d="M111.52,26.3c0-2.85,1.67-4.64,4.29-4.64s4.29,1.79,4.29,4.64-1.66,4.64-4.29,4.64S111.52,29.16,111.52,26.3Zm6.69,0c0-1.95-.89-3.11-2.4-3.11s-2.4,1.17-2.4,3.11.89,3.11,2.4,3.11,2.4-1.15,2.4-3.11Z"/>
        <path class="cls-2" d="M121.64,21.77h1.77v1.54h0a2.16,2.16,0,0,1,2.18-1.63,2.79,2.79,0,0,1,.64.07v1.74a2.67,2.67,0,0,0-.84-.12,1.89,1.89,0,0,0-2,1.8,1.42,1.42,0,0,0,0,.29v5.37h-1.86Z"/>
        <path class="cls-2" d="M134.84,28.17c-.25,1.64-1.86,2.77-3.9,2.77-2.64,0-4.27-1.77-4.27-4.6s1.64-4.68,4.19-4.68,4.08,1.72,4.08,4.47v.63h-6.4v.12a2.36,2.36,0,0,0,2.15,2.55H131a2,2,0,0,0,2.09-1.27Zm-6.29-2.7h4.53a2.18,2.18,0,0,0-2.05-2.3h-.17a2.29,2.29,0,0,0-2.31,2.28Z"/>
      </g>
    </g>
    <g id="_Group_4" data-name=" Group 4">
      <g>
        <path class="cls-2" d="M63.28,9.06a2.64,2.64,0,0,1,2.82,2.45,3,3,0,0,1,0,.52c0,1.9-1,3-2.81,3H61.12v-6Zm-1.23,5.12h1.12a1.87,1.87,0,0,0,2-1.76,1.64,1.64,0,0,0,0-.38,1.88,1.88,0,0,0-1.61-2.12,1.43,1.43,0,0,0-.36,0H62.05Z"/>
        <path class="cls-2" d="M67.13,12.78a2.13,2.13,0,1,1,4.25-.41,2.8,2.8,0,0,1,0,.41,2.13,2.13,0,0,1-4.25.41A2.8,2.8,0,0,1,67.13,12.78Zm3.34,0c0-1-.44-1.55-1.21-1.55s-1.21.57-1.21,1.55.44,1.55,1.21,1.55,1.21-.57,1.21-1.55Z"/>
        <path class="cls-2" d="M77,15H76.1l-.93-3.32H75.1L74.18,15h-.92L72,10.53h.9L73.73,14h.07l.92-3.43h.85L76.5,14h.07l.8-3.43h.89Z"/>
        <path class="cls-2" d="M79.31,10.53h.85v.71h.07a1.33,1.33,0,0,1,1.34-.8,1.46,1.46,0,0,1,1.57,1.35,1.13,1.13,0,0,1,0,.32V15h-.89V12.34c0-.73-.31-1.09-1-1.09a1,1,0,0,0-1.08,1V15h-.88Z"/>
        <path class="cls-2" d="M84.55,8.77h.88V15h-.88Z"/>
        <path class="cls-2" d="M86.67,12.78a2.13,2.13,0,1,1,4.25-.41,2.8,2.8,0,0,1,0,.41,2.13,2.13,0,0,1-4.25.41A2.8,2.8,0,0,1,86.67,12.78Zm3.33,0c0-1-.44-1.55-1.21-1.55s-1.2.57-1.2,1.55.43,1.55,1.2,1.55S90,13.76,90,12.78Z"/>
        <path class="cls-2" d="M91.85,13.76c0-.82.61-1.28,1.68-1.35l1.22-.07V12c0-.47-.32-.74-.92-.74s-.84.18-.94.5H92c.09-.78.82-1.27,1.84-1.27S95.63,11,95.63,12V15h-.85V14.4h-.07a1.51,1.51,0,0,1-1.36.7,1.36,1.36,0,0,1-1.49-1.21S91.85,13.8,91.85,13.76Zm2.9-.39V13l-1.1.07c-.62,0-.9.26-.9.65s.35.64.83.64a1.05,1.05,0,0,0,1.16-.94Z"/>
        <path class="cls-2" d="M96.8,12.78c0-1.43.73-2.33,1.87-2.33a1.48,1.48,0,0,1,1.38.79h.07V8.77H101V15h-.86v-.71h-.07a1.57,1.57,0,0,1-1.41.78C97.52,15.1,96.8,14.2,96.8,12.78Zm.92,0c0,1,.45,1.53,1.2,1.53s1.21-.59,1.21-1.53-.46-1.53-1.21-1.53-1.2.58-1.2,1.53Z"/>
        <path class="cls-2" d="M104.68,12.78a2.13,2.13,0,1,1,4.25-.41,2.8,2.8,0,0,1,0,.41,2.13,2.13,0,1,1-4.25.41A2.8,2.8,0,0,1,104.68,12.78Zm3.34,0c0-1-.44-1.55-1.21-1.55s-1.21.57-1.21,1.55.43,1.55,1.21,1.55S108,13.76,108,12.78Z"/>
        <path class="cls-2" d="M110.12,10.53H111v.71H111a1.34,1.34,0,0,1,1.35-.8A1.47,1.47,0,0,1,114,11.79a1.69,1.69,0,0,1,0,.32V15h-.89V12.34c0-.73-.32-1.09-1-1.09a1,1,0,0,0-1.08,1,.38.38,0,0,0,0,.15V15h-.89Z"/>
        <path class="cls-2" d="M119,9.4v1.15h1v.74h-1v2.32c0,.47.19.68.63.68l.34,0V15a2.59,2.59,0,0,1-.48,0c-1,0-1.38-.34-1.38-1.21V11.29h-.72v-.74h.72V9.4Z"/>
        <path class="cls-2" d="M121.16,8.77H122v2.48h.07a1.4,1.4,0,0,1,1.37-.81,1.49,1.49,0,0,1,1.56,1.4,1.29,1.29,0,0,1,0,.28V15h-.89V12.34c0-.72-.33-1.08-1-1.08a1.05,1.05,0,0,0-1.14,1,1.09,1.09,0,0,0,0,.18V15h-.89Z"/>
        <path class="cls-2" d="M130.21,13.81a1.84,1.84,0,0,1-2,1.31,2.05,2.05,0,0,1-2.1-2c0-.11,0-.22,0-.33A2.07,2.07,0,0,1,128,10.46a1.51,1.51,0,0,1,.3,0c1.25,0,2,.85,2,2.27V13h-3.18v.05a1.18,1.18,0,0,0,1.08,1.28h.12a1.08,1.08,0,0,0,1.07-.55Zm-3.12-1.45h2.27a1.07,1.07,0,0,0-1-1.16h-.11a1.15,1.15,0,0,0-1.16,1.13v0Z"/>
      </g>
    </g>
  </g>
</svg>
