<svg id="Слой_1" data-name="Слой 1" xmlns="http://www.w3.org/2000/svg" xmlns:xlink="http://www.w3.org/1999/xlink" viewBox="0 0 42 42">
  <defs>
    <style>
      .cls-1 {
        fill: #fff;
      }

      .cls-2 {
        fill: url(#Безымянный_градиент_2);
      }

      .cls-3 {
        fill: url(#Безымянный_градиент_2-2);
      }

      .cls-4 {
        fill: url(#Безымянный_градиент_2-3);
      }
    </style>
    <linearGradient id="Безымянный_градиент_2" data-name="Безымянный градиент 2" x1="14.56" y1="26.79" x2="31" y2="26.79" gradientUnits="userSpaceOnUse">
      <stop offset="0" stop-color="#608ad8"/>
      <stop offset="1" stop-color="#3a478f"/>
    </linearGradient>
    <linearGradient id="Безымянный_градиент_2-2" x1="11" y1="27.48" x2="13.38" y2="27.48" xlink:href="#Безымянный_градиент_2"/>
    <linearGradient id="Безымянный_градиент_2-3" x1="17.52" y1="16.9" x2="29.24" y2="16.9" xlink:href="#Безымянный_градиент_2"/>
  </defs>
  <title>icon</title>
  <circle class="cls-1" cx="21" cy="21" r="21"/>
  <g>
    <path class="cls-2" d="M30.52,23a1.18,1.18,0,0,0-1.55.15l-3.16,3.94a1.42,1.42,0,0,1-.87.37H21a.56.56,0,0,0-.47.25.59.59,0,1,1-.95-.69A1.74,1.74,0,0,1,21,26.31h3.57a1.17,1.17,0,0,0,0-2.34H21.49a.68.68,0,0,1-.4-.15,4.15,4.15,0,0,0-2.45-1.21h0a4.18,4.18,0,0,0-3.28,1,1.6,1.6,0,0,1-.8.35V31h10a3.53,3.53,0,0,0,2.81-1.41l3.4-4.92A1.18,1.18,0,0,0,30.52,23Z"/>
    <path class="cls-3" d="M11.59,24a.58.58,0,0,0-.59.58v5.86a.58.58,0,0,0,.59.59h1.79V24Z"/>
    <path class="cls-4" d="M23.38,11a5.9,5.9,0,1,0,5.86,5.9A5.9,5.9,0,0,0,23.38,11Zm-1.46,3.55a.59.59,0,0,1,0,1.18.59.59,0,1,1,0-1.18Zm2.93,4.69a.59.59,0,1,1,0-1.17.59.59,0,0,1,0,1.17Zm.45-3.72L22.37,19a.59.59,0,1,1-.9-.75l2.93-3.51a.58.58,0,0,1,.82-.08A.59.59,0,0,1,25.3,15.52Z"/>
  </g>
</svg>
