<svg id="Слой_1" data-name="Слой 1" xmlns="http://www.w3.org/2000/svg" xmlns:xlink="http://www.w3.org/1999/xlink" viewBox="0 0 42 42">
  <defs>
    <style>
      .cls-1 {
        fill: #fff;
      }

      .cls-2 {
        fill: url(#Безымянный_градиент_2);
      }
    </style>
    <linearGradient id="Безымянный_градиент_2" data-name="Безымянный градиент 2" x1="12" y1="21" x2="30" y2="21" gradientUnits="userSpaceOnUse">
      <stop offset="0" stop-color="#608ad8"/>
      <stop offset="1" stop-color="#3a478f"/>
    </linearGradient>
  </defs>
  <title>app_landing</title>
  <g>
    <circle class="cls-1" cx="21" cy="21" r="21"/>
    <path class="cls-2" d="M24,20.5v-6l-3-3-3,3v2H12v14H30v-10Zm-8,8H14v-2h2Zm0-4H14v-2h2Zm0-4H14v-2h2Zm6,8H20v-2h2Zm0-4H20v-2h2Zm0-4H20v-2h2Zm0-4H20v-2h2Zm6,12H26v-2h2Zm0-4H26v-2h2Z"/>
  </g>
</svg>
