<svg id="Слой_1" data-name="Слой 1" xmlns="http://www.w3.org/2000/svg" viewBox="0 0 150 32.32">
  <defs>
    <style>
      .cls-1 {
        fill: #fff;
      }
    </style>
  </defs>
  <title>app_landing</title>
  <g>
    <path class="cls-1" d="M32.3,0a16,16,0,0,0-8.07,2.16,16.16,16.16,0,1,0-8.07,30.16,15.93,15.93,0,0,0,8.07-2.16A16.16,16.16,0,1,0,32.3,0Zm0,27.52a11.53,11.53,0,0,1-4-.72A16.09,16.09,0,0,0,32,19.43H27a11.51,11.51,0,0,1-6.89,7.39,11.51,11.51,0,0,1-4,.72,11.37,11.37,0,0,1,0-22.73,11.59,11.59,0,0,1,4,.72A15.91,15.91,0,0,0,16.5,12.9h4.93a11.53,11.53,0,0,1,2.8-4.73,11.23,11.23,0,0,1,4.09-2.66,11.37,11.37,0,1,1,4,22Z"/>
    <g>
      <polygon class="cls-1" points="61.8 22.11 61.8 6.37 57.8 6.37 57.8 25.55 71.38 25.55 71.38 22.11 61.8 22.11"/>
      <path class="cls-1" d="M72.9,25.55h3.76V11.38H72.9Zm0-19.3V9.67h3.76V6.25Z"/>
      <polygon class="cls-1" points="87.14 16.72 92.22 11.44 87.62 11.44 82.93 16.78 82.93 6.43 79.29 6.43 79.29 25.55 82.93 25.55 82.93 21.09 84.47 19.49 87.92 25.55 92.42 25.55 87.14 16.72"/>
      <path class="cls-1" d="M93.26,25.55H97V11.38H93.26Zm0-19.3V9.67H97V6.25Z"/>
      <path class="cls-1" d="M119.84,14.52a4.13,4.13,0,0,0-2.46-3.1,5.29,5.29,0,0,0-1.91-.39,5.65,5.65,0,0,0-2.54.59,4.69,4.69,0,0,0-1.8,1.84,4.09,4.09,0,0,0-1.22-1.7,5.07,5.07,0,0,0-5.43.12,6.26,6.26,0,0,0-1.3,1.58V11.4H99.57V25.53h3.77V17a3.94,3.94,0,0,1,.3-1.74,2.22,2.22,0,0,1,2.14-1,1.83,1.83,0,0,1,1.84,1,4.65,4.65,0,0,1,.26,1.84v8.47h3.75V17.12a4,4,0,0,1,.3-1.62,2.13,2.13,0,0,1,2.12-1.28,1.84,1.84,0,0,1,1.82,1,2.82,2.82,0,0,1,.26,1.32v9h3.81l0-8.93A13.73,13.73,0,0,0,119.84,14.52Z"/>
      <path class="cls-1" d="M134.28,24.53a2,2,0,0,1-.22-1c0-.64,0-1.18,0-1.64V15.4a3.56,3.56,0,0,0-1.82-3.48,9.11,9.11,0,0,0-4.17-.93c-2.38,0-4.08.65-5.07,1.89a5.44,5.44,0,0,0-1,3.06h3.59a2.66,2.66,0,0,1,.52-1.3,2.39,2.39,0,0,1,1.88-.64,3.83,3.83,0,0,1,1.8.34,1.23,1.23,0,0,1,.62,1.2,1.11,1.11,0,0,1-.8,1.06,6.22,6.22,0,0,1-1.48.32l-1.28.1a9.29,9.29,0,0,0-3.29.9,4.07,4.07,0,0,0-2,3.79,3.91,3.91,0,0,0,1.26,3.12,4.71,4.71,0,0,0,3.21,1.1,5.33,5.33,0,0,0,2.72-.68,7.73,7.73,0,0,0,1.78-1.42c0,.32.06.6.1.86a3.57,3.57,0,0,0,.24.8h4V25A1.16,1.16,0,0,1,134.28,24.53Zm-3.95-4.48a3,3,0,0,1-1.06,2.56,4,4,0,0,1-2.24.7,2,2,0,0,1-1.3-.42,1.67,1.67,0,0,1-.54-1.38,1.71,1.71,0,0,1,.88-1.58,5.44,5.44,0,0,1,1.7-.5l.84-.16a5.43,5.43,0,0,0,1-.26,4.92,4.92,0,0,0,.72-.37Z"/>
      <path class="cls-1" d="M148.26,12.9A5.45,5.45,0,0,0,144,11.07a4.68,4.68,0,0,0-3,.95,5.82,5.82,0,0,0-1.28,1.46v-2.1h-3.55V31.14h3.67V23.75a5.48,5.48,0,0,0,1.2,1.36,4.54,4.54,0,0,0,2.82.84,5.52,5.52,0,0,0,4.37-2,8.41,8.41,0,0,0,1.7-5.71A7.54,7.54,0,0,0,148.26,12.9Zm-2.93,8.77a2.7,2.7,0,0,1-2.38,1.2,3.07,3.07,0,0,1-1.86-.58,4.14,4.14,0,0,1-1.32-3.48,7.3,7.3,0,0,1,.4-2.59A2.8,2.8,0,0,1,143,14.3a2.63,2.63,0,0,1,2.44,1.26,5.38,5.38,0,0,1,.74,2.92A5.6,5.6,0,0,1,145.33,21.67Z"/>
    </g>
  </g>
</svg>
