<svg id="Слой_1" data-name="Слой 1" xmlns="http://www.w3.org/2000/svg" viewBox="0 0 42 42">
  <defs>
    <style>
      .cls-1 {
        fill: #fff;
      }
    </style>
  </defs>
  <title>app_landing</title>
  <g>
    <path class="cls-1" d="M21,1A20,20,0,1,1,1,21,20,20,0,0,1,21,1m0-1A21,21,0,1,0,42,21,21,21,0,0,0,21,0Z"/>
    <path class="cls-1" d="M26.84,20.15l-8-5a1,1,0,0,0-1.53.85V26a1,1,0,0,0,.52.87.94.94,0,0,0,.48.13,1,1,0,0,0,.53-.15l8-5a1,1,0,0,0,.47-.85A1,1,0,0,0,26.84,20.15Z"/>
  </g>
</svg>
