<svg id="Слой_1" data-name="Слой 1" xmlns="http://www.w3.org/2000/svg" xmlns:xlink="http://www.w3.org/1999/xlink" viewBox="0 0 42 42">
  <defs>
    <style>
      .cls-1 {
        fill: transparent;
      }

      .cls-2 {
        fill: url(#Безымянный_градиент_2);
      }

      .cls-3 {
        fill: url(#Безымянный_градиент_2-2);
      }

      .cls-4 {
        fill: url(#Безымянный_градиент_2-3);
      }
    </style>
    <linearGradient id="Безымянный_градиент_2" data-name="Безымянный градиент 2" x1="23.21" y1="27.11" x2="31" y2="27.11" gradientUnits="userSpaceOnUse">
      <stop offset="0" stop-color="#608ad8"/>
      <stop offset="1" stop-color="#3a478f"/>
    </linearGradient>
    <linearGradient id="Безымянный_градиент_2-2" x1="11" y1="18.5" x2="26" y2="18.5" xlink:href="#Безымянный_градиент_2"/>
    <linearGradient id="Безымянный_градиент_2-3" x1="14.13" y1="16.31" x2="18.5" y2="16.31" xlink:href="#Безымянный_градиент_2"/>
  </defs>
  <title>icon</title>
  <circle class="cls-1" cx="21" cy="21" r="21"/>
  <g>
    <path class="cls-2" d="M30.45,27.8l-4.59-4.59a8.81,8.81,0,0,1-2.65,2.65l4.59,4.59a1.87,1.87,0,0,0,2.65-2.65Z"/>
    <path class="cls-3" d="M26,18.5A7.5,7.5,0,1,0,18.5,26,7.5,7.5,0,0,0,26,18.5Zm-7.5,5.62a5.62,5.62,0,1,1,5.63-5.62A5.62,5.62,0,0,1,18.5,24.12Z"/>
    <path class="cls-4" d="M14.13,18.5h1.24a3.13,3.13,0,0,1,3.13-3.12V14.13A4.37,4.37,0,0,0,14.13,18.5Z"/>
  </g>
</svg>
