<svg id="Слой_1" data-name="Слой 1" xmlns="http://www.w3.org/2000/svg" xmlns:xlink="http://www.w3.org/1999/xlink" viewBox="0 0 42 42">
  <defs>
    <style>
      .cls-1 {
        fill: transparent;
      }

      .cls-2 {
        fill: url(#Безымянный_градиент_2);
      }

      .cls-3 {
        fill: url(#Безымянный_градиент_2-2);
      }

      .cls-4 {
        fill: url(#Безымянный_градиент_2-3);
      }

      .cls-5 {
        fill: url(#Безымянный_градиент_2-4);
      }
    </style>
    <linearGradient id="Безымянный_градиент_2" data-name="Безымянный градиент 2" x1="12.5" y1="16.01" x2="21.21" y2="16.01" gradientUnits="userSpaceOnUse">
      <stop offset="0" stop-color="#608ad8"/>
      <stop offset="1" stop-color="#3a478f"/>
    </linearGradient>
    <linearGradient id="Безымянный_градиент_2-2" x1="19.19" y1="16" x2="29.23" y2="16" xlink:href="#Безымянный_градиент_2"/>
    <linearGradient id="Безымянный_градиент_2-3" x1="22.85" y1="22.95" x2="31" y2="22.95" xlink:href="#Безымянный_градиент_2"/>
    <linearGradient id="Безымянный_градиент_2-4" x1="11" y1="22.31" x2="27.65" y2="22.31" xlink:href="#Безымянный_градиент_2"/>
  </defs>
  <title>icon</title>
  <circle class="cls-1" cx="21" cy="21" r="21"/>
  <g>
    <path class="cls-2" d="M21.21,15.91l-4.24-2H13.75a.68.68,0,0,0-.67.57l-.58,3.59Z"/>
    <path class="cls-3" d="M28.16,18.08l1.07-1.65-.31-1.93a.68.68,0,0,0-.67-.57H19.19Z"/>
    <path class="cls-4" d="M31,27.29l-1.53-9.47L22.85,28.07h7.47a.66.66,0,0,0,.52-.24A.67.67,0,0,0,31,27.29Z"/>
    <path class="cls-5" d="M27.65,18.88l-5.07-2.34L12.35,19.1h0L11,27.29a.67.67,0,0,0,.15.54.66.66,0,0,0,.52.24h10ZM21,25.67h0a.41.41,0,0,1-.21-.05l-2.47-1.23-2.46,1.23a.45.45,0,0,1-.55-.09.47.47,0,0,1-.09-.55l2.68-5.13a.47.47,0,0,1,.84,0L21.4,25a.45.45,0,0,1,.07.25A.47.47,0,0,1,21,25.67Z"/>
  </g>
</svg>
