<?xml version="1.0" encoding="utf-8"?>
<!-- Generator: Adobe Illustrator 21.1.0, SVG Export Plug-In . SVG Version: 6.00 Build 0)  -->
<svg version="1.1" xmlns="http://www.w3.org/2000/svg" xmlns:xlink="http://www.w3.org/1999/xlink" x="0px" y="0px"
	 viewBox="0 0 438.8 114.6" style="enable-background:new 0 0 438.8 114.6;" xml:space="preserve">
<style type="text/css">
	.st0{display:none;}
	.st1{display:inline;}
	.st2{fill:#FFFFFF;}
	.st3{fill:none;stroke:#000000;stroke-width:3;stroke-miterlimit:10;}
	.st4{fill:none;stroke:#000000;stroke-width:0.9996;stroke-miterlimit:10;}
	.st5{fill:#EC008C;}
	.st6{fill:url(#SVGID_1_);}
	.st7{opacity:0.95;fill:#3A478F;}
	.st8{fill:#608AD8;}
	.st9{fill:none;stroke:#FFF200;stroke-width:0.9996;stroke-miterlimit:10;}
	.st10{fill:#3E68FF;}
	.st11{fill:url(#SVGID_2_);}
	.st12{fill:none;stroke:#EF4136;stroke-width:0.9996;stroke-miterlimit:10;}
	.st13{fill:#3A478F;}
	.st14{fill:#203260;}
	.st15{fill:url(#SVGID_3_);}
	.st16{opacity:0.9;fill:url(#SVGID_4_);}
	.st17{fill:url(#SVGID_5_);}
	.st18{fill:none;}
	.st19{fill:url(#SVGID_6_);}
	.st20{fill:url(#SVGID_7_);}
	.st21{fill:url(#SVGID_8_);}
	.st22{fill:url(#SVGID_9_);}
	.st23{fill:url(#SVGID_10_);}
	.st24{fill:url(#SVGID_11_);}
	.st25{fill:none;stroke:#EC008C;stroke-miterlimit:10;}
	.st26{fill:url(#SVGID_12_);}
	.st27{fill:url(#SVGID_13_);}
	.st28{fill:url(#SVGID_14_);}
	.st29{fill:url(#SVGID_15_);}
	.st30{fill:url(#SVGID_16_);}
	.st31{fill:url(#SVGID_17_);}
	.st32{opacity:0.9;}
	.st33{opacity:0.9;fill:#FFFFFF;}
	.st34{fill:url(#SVGID_18_);}
	.st35{fill:url(#SVGID_19_);}
	.st36{fill:#1A284D;}
	.st37{fill:url(#SVGID_20_);}
	.st38{fill:url(#SVGID_21_);}
	.st39{fill:url(#SVGID_22_);}
	.st40{fill:url(#SVGID_23_);}
	.st41{fill:#32A68C;}
	.st42{fill:#258888;}
	.st43{fill:url(#SVGID_24_);}
	.st44{fill:#687AA8;}
	.st45{fill:#1D2D56;}
	.st46{fill:#627792;}
	.st47{display:none;fill:none;stroke:#000000;stroke-width:0.9996;stroke-miterlimit:10;}
	.st48{fill:url(#SVGID_25_);}
	.st49{fill:#231F20;}
	.st50{fill:none;stroke:#000000;stroke-width:20;stroke-miterlimit:10;}
	.st51{fill:url(#SVGID_26_);}
	.st52{fill:url(#SVGID_27_);}
	.st53{font-family:'AvenirLTStd-Heavy';}
	.st54{font-size:80px;}
	.st55{letter-spacing:-2;}
	.st56{fill:#009473;}
	.st57{fill:url(#SVGID_28_);}
	.st58{fill:#4F6CB7;}
	.st59{opacity:0.55;fill:#608AD8;}
	.st60{fill:url(#SVGID_29_);}
	.st61{fill:#1A1A1A;}
	.st62{fill:url(#SVGID_30_);}
	.st63{fill:url(#SVGID_31_);}
	.st64{fill:url(#SVGID_32_);}
	.st65{fill:url(#SVGID_33_);}
</style>
<g id="Слой_1">
</g>
<g id="grid" class="st0">
</g>
<g id="Слой_3">
	<g>
		<rect x="139.7" y="26.8" class="st18" width="296.9" height="63.4"/>
		<text transform="matrix(1 0 0 1 139.6958 87.2581)" class="st49 st53 st54 st55">LikiBank</text>
		<rect x="2.2" class="st56" width="114.6" height="114.6"/>
		<g>
			<g>
				<path class="st2" d="M87.8,87.4c1.3,1.3,3.3,1.3,4.5,0l0,0c1.3-1.3,1.3-3.3,0-4.5L29.3,19.7c-1.3-1.3-3.3-1.3-4.5,0l0,0
					c-1.3,1.3-1.3,3.3,0,4.5L87.8,87.4z"/>
			</g>
			<g>
				<path class="st2" d="M19.3,38.4c1.2,1.2,3.2,1.2,4.4,0l8.3-8.3c1.2-1.2,1.2-3.2,0-4.4l-0.2-0.2c-1.2-1.2-3.2-1.2-4.4,0l-8.3,8.3
					c-1.2,1.2-1.2,3.2,0,4.4L19.3,38.4z"/>
			</g>
			<g>
				<path class="st2" d="M28.9,42.6c1.1,1.1,3,1.1,4.1,0l7.2-7.2c1.1-1.1,1.1-3,0-4.1l-0.4-0.4c-1.1-1.1-3-1.1-4.1,0l-7.2,7.2
					c-1.1,1.1-1.1,3,0,4.1L28.9,42.6z"/>
			</g>
			<g>
				<path class="st2" d="M32.9,52c1.2,1.2,3.2,1.2,4.4,0l8.3-8.3c1.2-1.2,1.2-3.2,0-4.4l-0.2-0.2c-1.2-1.2-3.2-1.2-4.4,0l-8.3,8.3
					c-1.2,1.2-1.2,3.2,0,4.4L32.9,52z"/>
			</g>
			
				<ellipse transform="matrix(0.7071 -0.7071 0.7071 0.7071 -35.1504 91.9623)" class="st2" cx="93.4" cy="88.4" rx="8.7" ry="8.7"/>
			
				<ellipse transform="matrix(0.7071 -0.7071 0.7071 0.7071 -37.6063 80.4833)" class="st2" cx="78.3" cy="85.6" rx="8.7" ry="8.7"/>
			
				<ellipse transform="matrix(0.7071 -0.7071 0.7071 0.7071 -25.2968 85.5821)" class="st2" cx="90.7" cy="73.3" rx="8.7" ry="8.7"/>
		</g>
		<g>
			<g>
				<path class="st2" d="M30.4,87.4c-1.3,1.3-3.3,1.3-4.5,0l0,0c-1.3-1.3-1.3-3.3,0-4.5l63.1-63.1c1.3-1.3,3.3-1.3,4.5,0l0,0
					c1.3,1.3,1.3,3.3,0,4.5L30.4,87.4z"/>
			</g>
			<g>
				<path class="st2" d="M100.7,39.9c-1.2,1.2-3.3,1.2-4.5,0L87,30.8c-1.2-1.2-1.2-3.3,0-4.5l0,0c1.2-1.2,3.3-1.2,4.5,0l9.1,9.1
					C101.9,36.6,101.9,38.7,100.7,39.9L100.7,39.9z"/>
			</g>
			<g>
				<path class="st2" d="M89.3,42.6c-1.1,1.1-3,1.1-4.1,0l-7.2-7.2c-1.1-1.1-1.1-3,0-4.1l0.4-0.4c1.1-1.1,3-1.1,4.1,0l7.2,7.2
					c1.1,1.1,1.1,3,0,4.1L89.3,42.6z"/>
			</g>
			<g>
				<path class="st2" d="M86.6,53.1c-1.2,1.2-3.3,1.2-4.5,0L72.9,44c-1.2-1.2-1.2-3.3,0-4.5l0,0c1.2-1.2,3.3-1.2,4.5,0l9.1,9.1
					C87.8,49.8,87.8,51.8,86.6,53.1L86.6,53.1z"/>
			</g>
			
				<ellipse transform="matrix(0.7071 -0.7071 0.7071 0.7071 -55.2473 43.4441)" class="st2" cx="24.8" cy="88.4" rx="8.7" ry="8.7"/>
			
				<ellipse transform="matrix(0.7071 -0.7071 0.7071 0.7071 -48.8671 53.2976)" class="st2" cx="39.9" cy="85.6" rx="8.7" ry="8.7"/>
			
				<ellipse transform="matrix(0.7071 -0.7071 0.7071 0.7071 -43.7683 40.9881)" class="st2" cx="27.6" cy="73.3" rx="8.7" ry="8.7"/>
		</g>
	</g>
</g>
</svg>
