<?xml version="1.0" encoding="utf-8"?>
<!-- Generator: Adobe Illustrator 21.1.0, SVG Export Plug-In . SVG Version: 6.00 Build 0)  -->
<svg version="1.1" xmlns="http://www.w3.org/2000/svg" xmlns:xlink="http://www.w3.org/1999/xlink" x="0px" y="0px"
	 viewBox="0 0 438.8 114.6" style="enable-background:new 0 0 438.8 114.6;" xml:space="preserve">
<style type="text/css">
	.st0{display:none;}
	.st1{display:inline;}
	.st2{fill:#FFFFFF;}
	.st3{fill:none;stroke:#000000;stroke-width:3;stroke-miterlimit:10;}
	.st4{fill:none;stroke:#000000;stroke-width:0.9996;stroke-miterlimit:10;}
	.st5{fill:#EC008C;}
	.st6{fill:url(#SVGID_1_);}
	.st7{opacity:0.95;fill:#3A478F;}
	.st8{fill:#608AD8;}
	.st9{fill:none;stroke:#FFF200;stroke-width:0.9996;stroke-miterlimit:10;}
	.st10{fill:#3E68FF;}
	.st11{fill:url(#SVGID_2_);}
	.st12{fill:none;stroke:#EF4136;stroke-width:0.9996;stroke-miterlimit:10;}
	.st13{fill:#3A478F;}
	.st14{fill:#203260;}
	.st15{fill:url(#SVGID_3_);}
	.st16{opacity:0.9;fill:url(#SVGID_4_);}
	.st17{fill:url(#SVGID_5_);}
	.st18{fill:none;}
	.st19{fill:url(#SVGID_6_);}
	.st20{fill:url(#SVGID_7_);}
	.st21{fill:url(#SVGID_8_);}
	.st22{fill:url(#SVGID_9_);}
	.st23{fill:url(#SVGID_10_);}
	.st24{fill:url(#SVGID_11_);}
	.st25{fill:none;stroke:#EC008C;stroke-miterlimit:10;}
	.st26{fill:url(#SVGID_12_);}
	.st27{fill:url(#SVGID_13_);}
	.st28{fill:url(#SVGID_14_);}
	.st29{fill:url(#SVGID_15_);}
	.st30{fill:url(#SVGID_16_);}
	.st31{fill:url(#SVGID_17_);}
	.st32{opacity:0.9;}
	.st33{opacity:0.9;fill:#FFFFFF;}
	.st34{fill:url(#SVGID_18_);}
	.st35{fill:url(#SVGID_19_);}
	.st36{fill:#1A284D;}
	.st37{fill:url(#SVGID_20_);}
	.st38{fill:url(#SVGID_21_);}
	.st39{fill:url(#SVGID_22_);}
	.st40{fill:url(#SVGID_23_);}
	.st41{fill:#32A68C;}
	.st42{fill:#258888;}
	.st43{fill:url(#SVGID_24_);}
	.st44{fill:#687AA8;}
	.st45{fill:#1D2D56;}
	.st46{fill:#627792;}
	.st47{display:none;fill:none;stroke:#000000;stroke-width:0.9996;stroke-miterlimit:10;}
	.st48{fill:url(#SVGID_25_);}
	.st49{fill:#231F20;}
	.st50{fill:none;stroke:#000000;stroke-width:20;stroke-miterlimit:10;}
	.st51{fill:url(#SVGID_26_);}
	.st52{fill:url(#SVGID_27_);}
	.st53{fill:#009473;}
	.st54{fill:url(#SVGID_28_);}
	.st55{fill:#4F6CB7;}
	.st56{opacity:0.55;fill:#608AD8;}
	.st57{fill:url(#SVGID_29_);}
	.st58{fill:#1A1A1A;}
	.st59{fill:url(#SVGID_30_);}
	.st60{fill:url(#SVGID_31_);}
	.st61{fill:url(#SVGID_32_);}
	.st62{fill:url(#SVGID_33_);}
	.st63{font-family:'AvenirLTStd-Heavy';}
	.st64{font-size:80px;}
	.st65{letter-spacing:-2;}
</style>
<g id="Слой_1">
</g>
<g id="grid" class="st0">
</g>
<g id="Слой_3">
	<g>
		<rect x="139.7" y="26.8" class="st18" width="296.9" height="63.4"/>
		<text transform="matrix(1 0 0 1 139.6958 87.2581)" class="st49 st63 st64 st65">LikiBank</text>
		<rect x="2.2" class="st53" width="114.6" height="114.6"/>
		<g>
			<g>
				<path class="st2" d="M87.2,94.3c1.3,1.3,3.3,1.3,4.5,0l0,0c1.3-1.3,1.3-3.3,0-4.5L28.7,26.7c-1.3-1.3-3.3-1.3-4.5,0l0,0
					c-1.3,1.3-1.3,3.3,0,4.5L87.2,94.3z"/>
			</g>
			<g>
				<path class="st2" d="M18.6,45.4c1.2,1.2,3.2,1.2,4.4,0l8.3-8.3c1.2-1.2,1.2-3.2,0-4.4l-0.2-0.2c-1.2-1.2-3.2-1.2-4.4,0l-8.3,8.3
					c-1.2,1.2-1.2,3.2,0,4.4L18.6,45.4z"/>
			</g>
			<g>
				<path class="st2" d="M28.3,49.6c1.1,1.1,3,1.1,4.1,0l7.2-7.2c1.1-1.1,1.1-3,0-4.1l-0.4-0.4c-1.1-1.1-3-1.1-4.1,0L27.9,45
					c-1.1,1.1-1.1,3,0,4.1L28.3,49.6z"/>
			</g>
			<g>
				<path class="st2" d="M32.3,59c1.2,1.2,3.2,1.2,4.4,0l8.3-8.3c1.2-1.2,1.2-3.2,0-4.4l-0.2-0.2c-1.2-1.2-3.2-1.2-4.4,0l-8.3,8.3
					c-1.2,1.2-1.2,3.2,0,4.4L32.3,59z"/>
			</g>
			<g>
				
					<ellipse transform="matrix(0.7071 -0.7071 0.7071 0.7071 -39.537 91.8062)" class="st2" cx="91.1" cy="93.6" rx="6.7" ry="6.7"/>
				
					<ellipse transform="matrix(0.7071 -0.7071 0.7071 0.7071 -41.4266 82.9742)" class="st2" cx="79.4" cy="91.5" rx="6.7" ry="6.7"/>
				<ellipse transform="matrix(0.7071 -0.7071 0.7071 0.7071 -31.9557 86.8972)" class="st2" cx="88.9" cy="82" rx="6.7" ry="6.7"/>
			</g>
			<g>
				<path class="st2" d="M62.2,98.9c0,1.8-1.4,3.2-3.2,3.2l0,0c-1.8,0-3.2-1.4-3.2-3.2l0-89.2c0-1.8,1.4-3.2,3.2-3.2l0,0
					c1.8,0,3.2,1.4,3.2,3.2L62.2,98.9z"/>
			</g>
			<g>
				<path class="st2" d="M76.1,15.8c0,1.7-1.4,3.1-3.1,3.1l-11.8,0c-1.7,0-3.1-1.4-3.1-3.1v-0.2c0-1.7,1.4-3.1,3.1-3.1l11.8,0
					c1.7,0,3.1,1.4,3.1,3.1V15.8z"/>
			</g>
			<g>
				<path class="st2" d="M72.3,25.6c0,1.6-1.3,2.9-2.9,2.9l-10.2,0c-1.6,0-2.9-1.3-2.9-2.9v-0.6c0-1.6,1.3-2.9,2.9-2.9l10.2,0
					c1.6,0,2.9,1.3,2.9,2.9V25.6z"/>
			</g>
			<g>
				<path class="st2" d="M76.1,35.1c0,1.7-1.4,3.1-3.1,3.1l-11.8,0c-1.7,0-3.1-1.4-3.1-3.1v-0.2c0-1.7,1.4-3.1,3.1-3.1l11.8,0
					c1.7,0,3.1,1.4,3.1,3.1V35.1z"/>
			</g>
			<g>
				<circle class="st2" cx="59" cy="101.8" r="6.3"/>
				<circle class="st2" cx="65.3" cy="92.8" r="6.3"/>
				<circle class="st2" cx="52.8" cy="92.8" r="6.3"/>
			</g>
			<g>
				<path class="st2" d="M29.8,94.3c-1.3,1.3-3.3,1.3-4.5,0l0,0c-1.3-1.3-1.3-3.3,0-4.5l63.1-63.1c1.3-1.3,3.3-1.3,4.5,0l0,0
					c1.3,1.3,1.3,3.3,0,4.5L29.8,94.3z"/>
			</g>
			<g>
				<path class="st2" d="M100,46.9c-1.2,1.2-3.3,1.2-4.5,0l-9.1-9.1c-1.2-1.2-1.2-3.3,0-4.5l0,0c1.2-1.2,3.3-1.2,4.5,0l9.1,9.1
					C101.3,43.6,101.3,45.6,100,46.9L100,46.9z"/>
			</g>
			<g>
				<path class="st2" d="M88.7,49.6c-1.1,1.1-3,1.1-4.1,0l-7.2-7.2c-1.1-1.1-1.1-3,0-4.1l0.4-0.4c1.1-1.1,3-1.1,4.1,0l7.2,7.2
					c1.1,1.1,1.1,3,0,4.1L88.7,49.6z"/>
			</g>
			<g>
				<path class="st2" d="M85.9,60.1c-1.2,1.2-3.3,1.2-4.5,0L72.3,51c-1.2-1.2-1.2-3.3,0-4.5l0,0c1.2-1.2,3.3-1.2,4.5,0l9.1,9.1
					C87.2,56.8,87.2,58.8,85.9,60.1L85.9,60.1z"/>
			</g>
			<g>
				
					<ellipse transform="matrix(0.7071 -0.7071 0.7071 0.7071 -58.6152 45.7475)" class="st2" cx="25.9" cy="93.6" rx="6.7" ry="6.7"/>
				
					<ellipse transform="matrix(0.7071 -0.7071 0.7071 0.7071 -53.7062 53.3289)" class="st2" cx="37.5" cy="91.5" rx="6.7" ry="6.7"/>
				<ellipse transform="matrix(0.7071 -0.7071 0.7071 0.7071 -49.7832 43.8579)" class="st2" cx="28" cy="82" rx="6.7" ry="6.7"/>
			</g>
		</g>
	</g>
</g>
</svg>
